<svg width="180" height="189" viewBox="0 0 180 189" fill="none" xmlns="http://www.w3.org/2000/svg">
<g clip-path="url(#clip0_614_2616)">
<path d="M0 90C0 40.2944 40.2944 0 90 0C139.706 0 180 40.2944 180 90V189H0V90Z" fill="url(#paint0_linear_614_2616)"/>
<path d="M90.5 189C90.5 189 54.7067 157.466 41.0994 131.053C29.0159 107.598 23 66 23 66L158 66C158 66 150.574 107.52 138.253 131.053C124.662 157.012 90.5 189 90.5 189Z" fill="#1E1E1E"/>
<ellipse cx="28" cy="30" rx="80" ry="59" fill="url(#paint1_linear_614_2616)"/>
<g filter="url(#filter0_d_614_2616)">
<path d="M232 27C232 61.2417 196.183 89 152 89C107.817 89 43 46.7417 43 12.5C43 -21.7417 107.817 -35 152 -35C196.183 -35 232 -7.24165 232 27Z" fill="url(#paint2_linear_614_2616)"/>
</g>
<path d="M90 120L100.825 137.25H79.1747L90 120Z" fill="url(#paint3_linear_614_2616)"/>
<circle cx="90" cy="116" r="12" fill="url(#paint4_linear_614_2616)"/>
</g>
<defs>
<filter id="filter0_d_614_2616" x="38" y="-37" width="197" height="132" filterUnits="userSpaceOnUse" color-interpolation-filters="sRGB">
<feFlood flood-opacity="0" result="BackgroundImageFix"/>
<feColorMatrix in="SourceAlpha" type="matrix" values="0 0 0 0 0 0 0 0 0 0 0 0 0 0 0 0 0 0 127 0" result="hardAlpha"/>
<feOffset dx="-1" dy="2"/>
<feGaussianBlur stdDeviation="2"/>
<feComposite in2="hardAlpha" operator="out"/>
<feColorMatrix type="matrix" values="0 0 0 0 0 0 0 0 0 0 0 0 0 0 0 0 0 0 0.25 0"/>
<feBlend mode="normal" in2="BackgroundImageFix" result="effect1_dropShadow_614_2616"/>
<feBlend mode="normal" in="SourceGraphic" in2="effect1_dropShadow_614_2616" result="shape"/>
</filter>
<linearGradient id="paint0_linear_614_2616" x1="90" y1="0" x2="90" y2="189" gradientUnits="userSpaceOnUse">
<stop stop-color="#31F8FF"/>
<stop offset="1" stop-color="#005FB8"/>
</linearGradient>
<linearGradient id="paint1_linear_614_2616" x1="70.5" y1="8.5" x2="1" y2="82" gradientUnits="userSpaceOnUse">
<stop stop-color="#005FB8"/>
<stop offset="1" stop-color="#31F8FF"/>
</linearGradient>
<linearGradient id="paint2_linear_614_2616" x1="86.5" y1="-2.00005" x2="182" y2="88.9999" gradientUnits="userSpaceOnUse">
<stop stop-color="#31F8FF"/>
<stop offset="1" stop-color="#005FB8"/>
</linearGradient>
<linearGradient id="paint3_linear_614_2616" x1="90" y1="120" x2="90" y2="143" gradientUnits="userSpaceOnUse">
<stop stop-color="#31F8FF"/>
<stop offset="1" stop-color="#005FB8"/>
</linearGradient>
<linearGradient id="paint4_linear_614_2616" x1="90" y1="104" x2="90" y2="128" gradientUnits="userSpaceOnUse">
<stop stop-color="#31F8FF"/>
<stop offset="1" stop-color="#005FB8"/>
</linearGradient>
<clipPath id="clip0_614_2616">
<path d="M0 90C0 40.2944 40.2944 0 90 0C139.706 0 180 40.2944 180 90V189H0V90Z" fill="white"/>
</clipPath>
</defs>
</svg>
