<svg xmlns="http://www.w3.org/2000/svg" enable-background="new 0 0 1364 960" viewBox="0 0 1364 960"><path fill="#f2f3ff" d="M147.73,855.84c0,0-66.71-90.48,43.82-288.89c45.26-81.25-142.71-168.36-22.45-402.76
		c112.4-219.08,371.34,11.1,540.48,13.9s229.32-144.95,391.34-69.91s-34.59,370.4,52.84,421.12
		c87.43,50.72,88.61,206.92,44.2,326.54H147.73z"/><path fill="#bac1dd" d="M146.3,741.48c-0.16,0-0.32-0.03-0.48-0.08c-3.47-1.24-5.39-1.96-5.39-1.96c-0.74-0.28-1.11-1.1-0.83-1.84
				c0.28-0.74,1.1-1.11,1.84-0.83c0.01,0,1.92,0.72,5.35,1.95c0.74,0.27,1.13,1.08,0.86,1.83
				C147.43,741.11,146.88,741.48,146.3,741.48z"/><path fill="#bac1dd" d="M366.17,828.28c-2.79,0-5.55-0.06-8.2-0.18c-0.79-0.04-1.4-0.7-1.36-1.49c0.04-0.79,0.69-1.4,1.49-1.36
				c2.63,0.12,5.4,0.18,8.14,0.18c1.01,0,2.03-0.01,3.05-0.02c0.01,0,0.02,0,0.02,0c0.78,0,1.42,0.63,1.43,1.41
				c0.01,0.79-0.62,1.44-1.41,1.45C368.27,828.27,367.21,828.28,366.17,828.28z M380.58,827.8c-0.75,0-1.38-0.58-1.43-1.34
				c-0.05-0.79,0.55-1.47,1.34-1.52c3.59-0.23,7.36-0.55,11.19-0.94c0.79-0.08,1.49,0.49,1.57,1.27c0.08,0.79-0.49,1.49-1.27,1.57
				c-3.87,0.4-7.67,0.72-11.3,0.95C380.64,827.8,380.61,827.8,380.58,827.8z M346.79,827.18c-0.06,0-0.12,0-0.17-0.01
				c-3.91-0.48-7.7-1.12-11.25-1.9c-0.77-0.17-1.26-0.93-1.09-1.7c0.17-0.77,0.94-1.26,1.7-1.09c3.47,0.77,7.16,1.39,10.98,1.86
				c0.78,0.1,1.34,0.81,1.25,1.59C348.12,826.64,347.5,827.18,346.79,827.18z M403.03,825.49c-0.7,0-1.32-0.52-1.41-1.24
				c-0.11-0.78,0.44-1.5,1.22-1.61c3.56-0.49,7.31-1.05,11.12-1.68c0.77-0.13,1.52,0.4,1.64,1.18c0.13,0.78-0.4,1.51-1.18,1.64
				c-3.84,0.63-7.61,1.2-11.2,1.69C403.16,825.49,403.1,825.49,403.03,825.49z M324.83,822.22c-0.16,0-0.32-0.03-0.48-0.08
				c-3.73-1.32-7.26-2.88-10.51-4.63c-0.7-0.37-0.96-1.24-0.58-1.94c0.37-0.7,1.24-0.95,1.94-0.58c3.12,1.68,6.52,3.18,10.11,4.45
				c0.74,0.26,1.13,1.08,0.87,1.83C325.97,821.86,325.42,822.22,324.83,822.22z M425.31,821.84c-0.67,0-1.27-0.48-1.4-1.17
				c-0.15-0.78,0.37-1.52,1.14-1.67c3.56-0.67,7.27-1.4,11.05-2.19c0.77-0.16,1.53,0.34,1.69,1.11c0.16,0.77-0.34,1.53-1.11,1.69
				c-3.79,0.79-7.53,1.52-11.1,2.2C425.49,821.84,425.4,821.84,425.31,821.84z M447.42,817.27c-0.66,0-1.25-0.45-1.39-1.12
				c-0.17-0.77,0.31-1.53,1.08-1.71c3.54-0.79,7.23-1.64,10.96-2.53c0.77-0.18,1.54,0.29,1.72,1.06c0.18,0.77-0.29,1.54-1.06,1.72
				c-3.74,0.89-7.45,1.74-11,2.53C447.63,817.26,447.52,817.27,447.42,817.27z M469.36,812.08c-0.64,0-1.22-0.43-1.39-1.09
				c-0.19-0.77,0.28-1.54,1.04-1.73c3.65-0.9,7.3-1.83,10.94-2.76c0.77-0.2,1.54,0.27,1.74,1.03c0.2,0.76-0.27,1.54-1.03,1.74
				c-3.65,0.94-7.3,1.86-10.96,2.77C469.59,812.07,469.48,812.08,469.36,812.08z M305.12,811.49c-0.31,0-0.63-0.1-0.9-0.32
				c-3.01-2.42-5.78-5.14-8.23-8.08c-0.51-0.61-0.42-1.51,0.18-2.01c0.61-0.5,1.51-0.42,2.01,0.18c2.33,2.8,4.96,5.38,7.83,7.69
				c0.62,0.5,0.71,1.4,0.22,2.01C305.95,811.3,305.54,811.49,305.12,811.49z M491.25,806.48c-0.63,0-1.21-0.42-1.38-1.07
				c-0.2-0.76,0.26-1.55,1.02-1.75c3.65-0.96,7.29-1.92,10.91-2.89c0.76-0.2,1.55,0.25,1.75,1.01c0.2,0.76-0.25,1.55-1.01,1.75
				c-3.62,0.97-7.27,1.93-10.92,2.89C491.5,806.46,491.38,806.48,491.25,806.48z M513.08,800.68c-0.63,0-1.21-0.42-1.38-1.06
				c-0.2-0.76,0.25-1.55,1.01-1.75l1.73-0.46c3.08-0.82,6.14-1.64,9.17-2.46c0.76-0.2,1.55,0.25,1.75,1.01
				c0.2,0.76-0.25,1.55-1.01,1.75c-3.04,0.81-6.1,1.63-9.17,2.45l-1.73,0.46C513.32,800.66,513.2,800.68,513.08,800.68z
				 M534.89,794.86c-0.63,0-1.21-0.42-1.38-1.07c-0.2-0.76,0.26-1.55,1.02-1.75c3.69-0.97,7.33-1.92,10.93-2.85
				c0.77-0.2,1.54,0.27,1.74,1.03c0.2,0.77-0.27,1.54-1.03,1.74c-3.59,0.92-7.24,1.87-10.92,2.84
				C535.14,794.85,535.01,794.86,534.89,794.86z M290.59,794.39c-0.47,0-0.94-0.24-1.21-0.67c-2.11-3.35-4.01-6.68-5.64-9.92
				c-0.36-0.7-0.07-1.56,0.63-1.92c0.7-0.35,1.56-0.07,1.92,0.63c1.59,3.15,3.44,6.41,5.51,9.68c0.42,0.67,0.22,1.55-0.45,1.97
				C291.12,794.32,290.85,794.39,290.59,794.39z M688.96,793.03c-0.76,0-1.39-0.6-1.43-1.37c-0.04-0.79,0.58-1.46,1.36-1.49
				c3.69-0.16,7.39-0.59,10.99-1.28c0.77-0.14,1.52,0.36,1.67,1.14c0.15,0.78-0.36,1.52-1.14,1.67c-3.73,0.71-7.57,1.16-11.4,1.33
				C689,793.03,688.98,793.03,688.96,793.03z M677.69,792.74c-0.05,0-0.09,0-0.14-0.01c-3.73-0.35-7.54-0.97-11.31-1.82
				c-0.77-0.17-1.25-0.94-1.08-1.71c0.17-0.77,0.94-1.26,1.71-1.08c3.65,0.83,7.33,1.42,10.95,1.76c0.79,0.07,1.36,0.77,1.29,1.56
				C679.05,792.18,678.42,792.74,677.69,792.74z M556.77,789.26c-0.64,0-1.23-0.44-1.39-1.09c-0.19-0.77,0.28-1.54,1.05-1.73
				c3.83-0.94,7.53-1.83,11-2.63c0.78-0.17,1.54,0.3,1.72,1.07c0.18,0.77-0.3,1.54-1.07,1.72c-3.46,0.8-7.14,1.68-10.96,2.62
				C557,789.25,556.88,789.26,556.77,789.26z M711.04,788.81c-0.59,0-1.14-0.37-1.35-0.96c-0.26-0.75,0.14-1.56,0.88-1.82
				c3.48-1.21,6.9-2.68,10.16-4.38c0.7-0.36,1.56-0.09,1.93,0.61c0.36,0.7,0.09,1.56-0.61,1.93c-3.38,1.76-6.93,3.29-10.54,4.55
				C711.35,788.78,711.19,788.81,711.04,788.81z M655.73,787.82c-0.16,0-0.32-0.03-0.47-0.08c-3.5-1.23-7.05-2.68-10.56-4.33
				c-0.71-0.34-1.02-1.19-0.69-1.9s1.18-1.02,1.9-0.69c3.43,1.61,6.89,3.03,10.3,4.22c0.74,0.26,1.14,1.08,0.87,1.82
				C656.88,787.45,656.32,787.82,655.73,787.82z M578.78,784.2c-0.66,0-1.26-0.46-1.4-1.14c-0.16-0.77,0.33-1.53,1.11-1.69
				c3.89-0.82,7.63-1.55,11.12-2.18c0.78-0.14,1.52,0.38,1.66,1.15c0.14,0.78-0.38,1.52-1.15,1.66c-3.46,0.62-7.18,1.35-11.04,2.16
				C578.97,784.2,578.87,784.2,578.78,784.2z M601,780.25c-0.7,0-1.32-0.52-1.41-1.23c-0.11-0.78,0.44-1.5,1.22-1.61
				c4.01-0.55,7.81-0.97,11.31-1.23c0.78-0.07,1.47,0.53,1.53,1.32c0.06,0.79-0.53,1.47-1.32,1.53c-3.44,0.26-7.18,0.67-11.13,1.21
				C601.13,780.25,601.07,780.25,601,780.25z M634.71,779.8c-0.09,0-0.19-0.01-0.28-0.03c-3.21-0.64-6.9-1.01-10.96-1.1
				c-0.79-0.02-1.41-0.67-1.4-1.46c0.02-0.78,0.65-1.4,1.43-1.4c0.01,0,0.02,0,0.03,0c4.23,0.09,8.08,0.48,11.46,1.15
				c0.77,0.15,1.28,0.91,1.12,1.68C635.97,779.33,635.38,779.8,634.71,779.8z M280.55,774.24c-0.59,0-1.14-0.37-1.35-0.95
				c-0.12-0.32-0.23-0.65-0.34-0.97c-0.26,0.47-0.76,0.77-1.34,0.73c-3.59-0.22-7.4-0.55-11.32-0.99c-0.78-0.09-1.35-0.8-1.26-1.58
				c0.09-0.78,0.8-1.35,1.58-1.26c3.87,0.43,7.63,0.76,11.17,0.98c0.19,0.01,0.36,0.06,0.52,0.13c-0.85-2.79-1.51-5.53-1.94-8.18
				c-0.13-0.78,0.4-1.51,1.18-1.64c0.77-0.13,1.51,0.4,1.64,1.18c0.56,3.42,1.51,7,2.79,10.65c0.26,0.74-0.13,1.56-0.87,1.82
				C280.87,774.22,280.71,774.24,280.55,774.24z M288.9,773.37c-0.78,0-1.42-0.63-1.43-1.42c-0.01-0.79,0.63-1.44,1.42-1.44
				c3.96-0.04,7.7-0.25,11.11-0.62c0.77-0.08,1.49,0.48,1.58,1.26c0.09,0.78-0.48,1.49-1.26,1.58c-3.51,0.39-7.35,0.61-11.4,0.64
				C288.91,773.37,288.9,773.37,288.9,773.37z M311.23,770.67c-0.63,0-1.2-0.41-1.38-1.05c-0.21-0.76,0.23-1.55,0.99-1.76
				c3.85-1.07,7.21-2.49,9.98-4.22c0.67-0.42,1.55-0.21,1.97,0.46c0.42,0.67,0.21,1.55-0.46,1.97c-3,1.87-6.61,3.4-10.72,4.54
				C311.49,770.65,311.36,770.67,311.23,770.67z M255.19,770.59c-0.07,0-0.14-0.01-0.22-0.02c-3.59-0.55-7.35-1.18-11.17-1.89
				c-0.78-0.14-1.29-0.89-1.15-1.67c0.14-0.78,0.89-1.29,1.67-1.15c3.79,0.7,7.52,1.33,11.08,1.87c0.78,0.12,1.32,0.85,1.2,1.63
				C256.5,770.08,255.89,770.59,255.19,770.59z M232.99,766.51c-0.1,0-0.2-0.01-0.3-0.03c-3.6-0.76-7.31-1.6-11.05-2.48
				c-0.77-0.18-1.25-0.95-1.06-1.72c0.18-0.77,0.95-1.25,1.72-1.06c3.71,0.87,7.41,1.7,10.99,2.46c0.77,0.16,1.27,0.92,1.1,1.7
				C234.25,766.05,233.65,766.51,232.99,766.51z M211.02,761.34c-0.12,0-0.24-0.01-0.36-0.04c-3.57-0.92-7.25-1.89-10.93-2.91
				c-0.76-0.21-1.21-1-1-1.76c0.21-0.76,1-1.21,1.76-1c3.67,1.01,7.33,1.98,10.88,2.89c0.77,0.2,1.23,0.98,1.03,1.74
				C212.24,760.92,211.66,761.34,211.02,761.34z M329.54,758.46c-0.25,0-0.51-0.07-0.74-0.21c-0.67-0.41-0.89-1.29-0.48-1.96
				c1.08-1.78,1.91-3.75,2.44-5.88c0.36-1.43,0.64-2.85,0.83-4.22c0.11-0.78,0.84-1.32,1.61-1.22c0.78,0.11,1.33,0.83,1.22,1.61
				c-0.2,1.47-0.5,2.99-0.89,4.52c-0.61,2.4-1.54,4.64-2.77,6.66C330.5,758.22,330.03,758.46,329.54,758.46z M189.25,755.37
				c-0.13,0-0.27-0.02-0.4-0.06c-3.56-1.04-7.2-2.13-10.83-3.25c-0.75-0.23-1.18-1.03-0.95-1.79c0.23-0.75,1.03-1.17,1.79-0.95
				c3.62,1.11,7.25,2.2,10.79,3.24c0.76,0.22,1.19,1.02,0.97,1.77C190.44,754.96,189.87,755.37,189.25,755.37z M277.15,752.11
				c-0.04,0-0.08,0-0.12,0c-0.79-0.06-1.37-0.75-1.31-1.54c0.32-4.04,1.23-7.86,2.7-11.36c0.3-0.73,1.14-1.07,1.87-0.77
				c0.73,0.31,1.07,1.14,0.77,1.87c-1.35,3.22-2.18,6.74-2.48,10.48C278.52,751.55,277.89,752.11,277.15,752.11z M167.67,748.73
				c-0.15,0-0.29-0.02-0.44-0.07c-3.61-1.17-7.22-2.36-10.74-3.56c-0.75-0.25-1.15-1.07-0.9-1.81c0.25-0.75,1.07-1.15,1.81-0.9
				c3.51,1.19,7.11,2.38,10.7,3.54c0.75,0.24,1.16,1.05,0.92,1.8C168.83,748.34,168.27,748.73,167.67,748.73z M332.49,736.64
				c-0.63,0-1.2-0.42-1.38-1.05c-0.96-3.5-2.77-6.46-5.37-8.8c-0.59-0.53-0.64-1.43-0.11-2.02c0.53-0.59,1.43-0.64,2.02-0.11
				c3.02,2.71,5.11,6.13,6.22,10.17c0.21,0.76-0.24,1.55-1,1.76C332.74,736.63,332.62,736.64,332.49,736.64z M285.84,731.78
				c-0.35,0-0.7-0.13-0.98-0.39c-0.58-0.54-0.61-1.45-0.06-2.02c2.67-2.84,5.82-5.2,9.38-7.02c0.7-0.36,1.56-0.08,1.92,0.63
				c0.36,0.7,0.08,1.56-0.63,1.92c-3.26,1.66-6.15,3.82-8.59,6.42C286.6,731.63,286.22,731.78,285.84,731.78z M316.74,722.12
				c-0.11,0-0.22-0.01-0.33-0.04c-3.33-0.79-7.01-0.93-10.68-0.42c-0.77,0.11-1.5-0.43-1.61-1.22c-0.11-0.78,0.43-1.51,1.22-1.61
				c4.02-0.57,8.06-0.4,11.74,0.46c0.77,0.18,1.24,0.95,1.06,1.72C317.98,721.68,317.39,722.12,316.74,722.12z"/><path fill="#bac1dd" d="M730.9,778.45c-0.44,0-0.87-0.2-1.15-0.58c-0.47-0.64-0.33-1.53,0.3-2c2.76-2.03,4.24-3.48,4.26-3.5
				c0.56-0.55,1.47-0.54,2.02,0.02c0.55,0.56,0.55,1.47-0.01,2.02c-0.06,0.06-1.62,1.59-4.57,3.76
				C731.49,778.36,731.19,778.45,730.9,778.45z"/><path fill="#bac1dd" d="M413.67,259.33c-0.1,0-0.2-0.01-0.31-0.03c-3.59-0.79-5.56-1.19-5.57-1.19c-0.77-0.16-1.27-0.91-1.11-1.69
				c0.16-0.77,0.92-1.27,1.69-1.11c0,0,1.99,0.41,5.61,1.2c0.77,0.17,1.26,0.93,1.09,1.7C414.92,258.88,414.33,259.33,413.67,259.33
				z"/><path fill="#bac1dd" d="M999.87,598.68l-0.95,0c-0.79,0-1.43-0.64-1.42-1.43c0-0.79,0.64-1.43,1.43-1.43c0,0,0,0,0,0l0.94,0
				c3.44,0,6.92-0.04,10.36-0.12c0.76-0.01,1.44,0.61,1.46,1.4c0.02,0.79-0.61,1.44-1.4,1.46
				C1006.84,598.64,1003.33,598.68,999.87,598.68z M987.6,598.52c-0.01,0-0.03,0-0.04,0c-3.79-0.1-7.62-0.25-11.36-0.45
				c-0.79-0.04-1.39-0.71-1.35-1.5c0.04-0.79,0.71-1.4,1.5-1.35c3.72,0.19,7.51,0.34,11.28,0.44c0.79,0.02,1.41,0.68,1.39,1.47
				C989.01,597.9,988.37,598.52,987.6,598.52z M1021.58,598.17c-0.76,0-1.39-0.6-1.43-1.36c-0.04-0.79,0.57-1.46,1.36-1.49
				c3.74-0.17,7.53-0.4,11.27-0.67c0.78-0.06,1.47,0.54,1.53,1.32c0.06,0.79-0.54,1.47-1.32,1.53c-3.76,0.27-7.58,0.5-11.34,0.67
				C1021.62,598.17,1021.6,598.17,1021.58,598.17z M964.98,597.34c-0.04,0-0.08,0-0.11,0c-3.79-0.3-7.59-0.65-11.31-1.04
				c-0.79-0.08-1.35-0.79-1.27-1.57c0.08-0.79,0.79-1.35,1.57-1.27c3.7,0.39,7.48,0.74,11.24,1.04c0.79,0.06,1.38,0.75,1.31,1.54
				C966.34,596.77,965.71,597.34,964.98,597.34z M1044.17,596.55c-0.73,0-1.35-0.55-1.42-1.29c-0.08-0.79,0.5-1.48,1.28-1.56
				c3.77-0.37,7.55-0.79,11.22-1.25c0.78-0.1,1.5,0.46,1.6,1.24c0.1,0.78-0.46,1.5-1.24,1.6c-3.7,0.46-7.5,0.88-11.3,1.25
				C1044.27,596.55,1044.22,596.55,1044.17,596.55z M942.46,594.94c-0.06,0-0.13,0-0.19-0.01c-3.78-0.51-7.56-1.09-11.24-1.7
				c-0.78-0.13-1.3-0.87-1.17-1.65c0.13-0.78,0.86-1.3,1.65-1.17c3.65,0.61,7.4,1.18,11.16,1.69c0.78,0.11,1.33,0.83,1.22,1.61
				C943.78,594.42,943.16,594.94,942.46,594.94z M1066.65,593.73c-0.69,0-1.3-0.51-1.41-1.21c-0.12-0.78,0.41-1.51,1.2-1.63
				c3.78-0.58,7.52-1.22,11.12-1.89c0.77-0.14,1.52,0.37,1.67,1.14c0.15,0.78-0.37,1.52-1.14,1.67c-3.63,0.68-7.4,1.32-11.21,1.91
				C1066.8,593.73,1066.72,593.73,1066.65,593.73z M920.12,591.19c-0.09,0-0.19-0.01-0.29-0.03c-3.76-0.76-7.5-1.59-11.11-2.46
				c-0.77-0.19-1.24-0.96-1.05-1.72c0.19-0.77,0.96-1.24,1.72-1.05c3.58,0.86,7.28,1.68,11.01,2.44c0.77,0.16,1.27,0.91,1.12,1.68
				C921.39,590.72,920.79,591.19,920.12,591.19z M1088.91,589.56c-0.66,0-1.25-0.45-1.39-1.12c-0.17-0.77,0.31-1.53,1.08-1.71
				c3.75-0.84,7.43-1.74,10.94-2.69c0.76-0.21,1.55,0.25,1.75,1.01c0.2,0.76-0.25,1.55-1.01,1.75c-3.55,0.95-7.27,1.87-11.06,2.72
				C1089.12,589.55,1089.02,589.56,1088.91,589.56z M898.11,585.86c-0.13,0-0.26-0.02-0.39-0.05c-3.71-1.06-7.37-2.19-10.88-3.37
				c-0.75-0.25-1.15-1.06-0.9-1.81c0.25-0.75,1.06-1.15,1.81-0.9c3.47,1.16,7.09,2.28,10.76,3.33c0.76,0.22,1.2,1.01,0.98,1.77
				C899.3,585.45,898.73,585.86,898.11,585.86z M1110.78,583.65c-0.6,0-1.16-0.38-1.36-0.99c-0.24-0.75,0.17-1.56,0.92-1.8
				c3.72-1.21,7.28-2.49,10.57-3.8c0.74-0.3,1.57,0.06,1.86,0.8c0.29,0.73-0.06,1.56-0.8,1.86c-3.35,1.34-6.96,2.64-10.75,3.87
				C1111.07,583.63,1110.92,583.65,1110.78,583.65z M876.65,578.63c-0.17,0-0.35-0.03-0.52-0.1c-3.61-1.42-7.14-2.93-10.49-4.49
				c-0.72-0.33-1.03-1.18-0.69-1.9c0.33-0.72,1.18-1.03,1.9-0.69c3.3,1.53,6.78,3.02,10.33,4.42c0.74,0.29,1.1,1.12,0.81,1.85
				C877.76,578.29,877.22,578.63,876.65,578.63z M1131.75,575.15c-0.52,0-1.02-0.28-1.27-0.78c-0.36-0.7-0.08-1.56,0.62-1.92
				c3.59-1.84,6.78-3.77,9.5-5.74c0.64-0.46,1.53-0.32,2,0.32c0.46,0.64,0.32,1.53-0.32,2c-2.83,2.05-6.15,4.05-9.87,5.96
				C1132.19,575.1,1131.97,575.15,1131.75,575.15z M856.14,569.07c-0.23,0-0.47-0.06-0.69-0.18c-3.41-1.87-6.7-3.86-9.79-5.9
				c-0.66-0.43-0.84-1.32-0.41-1.98c0.43-0.66,1.32-0.84,1.98-0.41c3.03,2,6.26,3.95,9.6,5.78c0.69,0.38,0.94,1.25,0.56,1.94
				C857.13,568.8,856.64,569.07,856.14,569.07z M837.29,556.57c-0.31,0-0.63-0.1-0.89-0.32c-3.04-2.45-5.92-5.02-8.55-7.65
				c-0.56-0.56-0.56-1.46,0-2.02c0.56-0.56,1.46-0.56,2.02,0c2.55,2.55,5.35,5.06,8.32,7.44c0.62,0.49,0.71,1.39,0.22,2.01
				C838.12,556.38,837.71,556.57,837.29,556.57z M821.37,540.55c-0.43,0-0.85-0.19-1.13-0.55c-0.6-0.77-1.19-1.56-1.76-2.35
				c-1.64-2.27-3.25-4.64-4.78-7.04c-0.42-0.67-0.23-1.55,0.44-1.97c0.67-0.42,1.55-0.23,1.97,0.44c1.51,2.36,3.08,4.68,4.69,6.9
				c0.55,0.77,1.12,1.52,1.7,2.27c0.48,0.62,0.37,1.52-0.25,2.01C821.98,540.45,821.68,540.55,821.37,540.55z M809.17,521.52
				c-0.51,0-1-0.27-1.26-0.75c-1.76-3.26-3.48-6.69-5.09-10.2c-0.33-0.72-0.02-1.57,0.7-1.9c0.72-0.33,1.57-0.02,1.9,0.7
				c1.59,3.46,3.28,6.83,5.01,10.04c0.38,0.69,0.12,1.56-0.58,1.94C809.63,521.47,809.4,521.52,809.17,521.52z M799.68,501
				c-0.57,0-1.11-0.34-1.33-0.9c-1.34-3.38-2.66-6.97-3.94-10.67c-0.26-0.75,0.14-1.56,0.89-1.82c0.75-0.25,1.56,0.14,1.82,0.89
				c1.26,3.66,2.57,7.21,3.89,10.55c0.29,0.73-0.07,1.56-0.8,1.86C800.03,500.97,799.85,501,799.68,501z M792.29,479.62
				c-0.61,0-1.18-0.4-1.37-1.01c-1.04-3.43-2.07-6.99-3.15-10.91c-0.21-0.76,0.24-1.55,1-1.76c0.76-0.21,1.55,0.24,1.76,1
				c1.07,3.89,2.09,7.43,3.13,10.83c0.23,0.76-0.2,1.55-0.95,1.78C792.57,479.61,792.43,479.62,792.29,479.62z M786.25,457.8
				c-0.64,0-1.22-0.43-1.38-1.07c-0.95-3.68-1.86-7.35-2.77-11c-0.19-0.77,0.27-1.54,1.04-1.73c0.77-0.19,1.54,0.27,1.73,1.04
				c0.91,3.64,1.83,7.3,2.77,10.98c0.2,0.77-0.26,1.54-1.03,1.74C786.48,457.79,786.36,457.8,786.25,457.8z M780.72,435.82
				c-0.64,0-1.22-0.43-1.39-1.08c-1.07-4.22-1.98-7.7-2.85-10.95c-0.21-0.76,0.25-1.55,1.01-1.75c0.76-0.21,1.55,0.24,1.75,1.01
				c0.88,3.26,1.79,6.75,2.86,10.99c0.19,0.77-0.27,1.54-1.04,1.74C780.95,435.81,780.84,435.82,780.72,435.82z M774.76,413.96
				c-0.61,0-1.18-0.4-1.37-1.02c-1.17-3.87-2.3-7.38-3.47-10.71c-0.26-0.74,0.13-1.56,0.88-1.82c0.74-0.26,1.56,0.13,1.82,0.88
				c1.18,3.38,2.33,6.92,3.51,10.84c0.23,0.76-0.2,1.55-0.96,1.78C775.04,413.94,774.9,413.96,774.76,413.96z M631.05,404.22
				c-1.14,0-2.32-0.1-3.49-0.31c-0.78-0.13-1.3-0.88-1.16-1.65c0.14-0.78,0.87-1.3,1.65-1.16c3.64,0.63,7.08,0.12,10.05-1.5
				c0.69-0.38,1.56-0.12,1.94,0.57c0.38,0.69,0.12,1.56-0.57,1.94C636.9,403.51,634.07,404.22,631.05,404.22z M617.49,399.48
				c-0.28,0-0.57-0.08-0.82-0.26c-3.11-2.17-6.03-4.99-8.42-8.16c-0.48-0.63-0.35-1.53,0.28-2c0.63-0.48,1.53-0.35,2,0.28
				c2.22,2.93,4.91,5.54,7.78,7.54c0.65,0.45,0.81,1.34,0.36,1.99C618.39,399.26,617.94,399.48,617.49,399.48z M646.53,394.24
				c-0.24,0-0.48-0.06-0.71-0.19c-0.69-0.39-0.93-1.26-0.54-1.95c1.59-2.8,2.88-6.23,3.83-10.18c0.18-0.77,0.95-1.24,1.72-1.06
				c0.77,0.18,1.24,0.95,1.06,1.72c-1.01,4.22-2.39,7.89-4.12,10.93C647.51,393.98,647.03,394.24,646.53,394.24z M767.2,392.62
				c-0.56,0-1.09-0.33-1.32-0.87c-1.52-3.58-3.13-6.98-4.79-10.11c-0.37-0.7-0.1-1.56,0.59-1.93c0.7-0.37,1.56-0.11,1.93,0.59
				c1.7,3.2,3.34,6.68,4.89,10.33c0.31,0.73-0.03,1.57-0.76,1.87C767.58,392.58,767.39,392.62,767.2,392.62z M604.07,381.68
				c-0.59,0-1.15-0.37-1.35-0.97c-1.12-3.3-1.69-6.62-1.69-9.88c0-0.6,0.02-1.2,0.06-1.81c0.05-0.79,0.7-1.39,1.52-1.33
				c0.79,0.05,1.39,0.73,1.33,1.52c-0.04,0.54-0.05,1.08-0.05,1.62c0,2.95,0.52,5.96,1.54,8.96c0.26,0.75-0.14,1.56-0.89,1.82
				C604.37,381.66,604.22,381.68,604.07,381.68z M756.55,372.71c-0.46,0-0.91-0.22-1.18-0.62c-2.13-3.13-4.43-6.07-6.83-8.74
				c-0.53-0.59-0.48-1.49,0.11-2.02c0.59-0.53,1.49-0.48,2.02,0.11c2.48,2.76,4.86,5.81,7.06,9.04c0.44,0.65,0.28,1.54-0.38,1.99
				C757.11,372.63,756.83,372.71,756.55,372.71z M651.41,372.46c-0.72,0-1.34-0.54-1.42-1.27c-0.38-3.38-1.42-6.82-3.09-10.24
				c-0.35-0.71-0.05-1.57,0.66-1.91c0.71-0.35,1.57-0.05,1.91,0.66c1.81,3.71,2.94,7.47,3.36,11.17c0.09,0.78-0.47,1.49-1.26,1.58
				C651.52,372.46,651.46,372.46,651.41,372.46z M605.72,359.81c-0.24,0-0.48-0.06-0.7-0.19c-0.69-0.39-0.93-1.26-0.54-1.95
				c1.85-3.26,4.43-6.26,7.68-8.92c0.61-0.5,1.51-0.41,2.01,0.2c0.5,0.61,0.41,1.51-0.2,2.01c-2.97,2.43-5.33,5.16-7,8.12
				C606.7,359.55,606.22,359.81,605.72,359.81z M741.48,356.01c-0.32,0-0.64-0.11-0.91-0.33c-2.83-2.33-5.87-4.46-9.04-6.35
				c-0.68-0.4-0.9-1.28-0.5-1.96c0.4-0.68,1.28-0.9,1.96-0.5c3.29,1.96,6.45,4.18,9.39,6.6c0.61,0.5,0.7,1.4,0.2,2.01
				C742.3,355.84,741.89,356.01,741.48,356.01z M642.04,352.32c-0.42,0-0.83-0.18-1.11-0.53c-2.16-2.66-4.73-5.36-7.65-8.03
				c-0.58-0.53-0.62-1.44-0.09-2.02c0.53-0.58,1.44-0.62,2.02-0.09c3.02,2.77,5.69,5.57,7.94,8.34c0.5,0.61,0.4,1.51-0.21,2.01
				C642.68,352.21,642.36,352.32,642.04,352.32z M622.66,345.34c-0.54,0-1.05-0.3-1.29-0.82c-0.34-0.71-0.03-1.57,0.68-1.9
				c3.24-1.53,6.87-2.89,10.79-4.04c0.76-0.22,1.55,0.21,1.77,0.97c0.22,0.76-0.21,1.55-0.97,1.77c-3.78,1.11-7.27,2.42-10.38,3.88
				C623.07,345.3,622.86,345.34,622.66,345.34z M722.2,344.5c-0.18,0-0.37-0.04-0.55-0.11c-3.3-1.38-6.83-2.59-10.48-3.61
				c-0.76-0.21-1.21-1-0.99-1.76c0.21-0.76,1-1.2,1.76-0.99c3.77,1.05,7.41,2.3,10.82,3.72c0.73,0.3,1.07,1.14,0.77,1.87
				C723.29,344.17,722.76,344.5,722.2,344.5z M644.26,338.82c-0.68,0-1.28-0.49-1.41-1.18c-0.14-0.78,0.38-1.52,1.16-1.66
				c3.55-0.63,7.36-1.16,11.32-1.55c0.77-0.07,1.49,0.5,1.56,1.28c0.08,0.79-0.5,1.49-1.28,1.56c-3.89,0.39-7.62,0.9-11.1,1.52
				C644.43,338.82,644.34,338.82,644.26,338.82z M700.55,338.39c-0.08,0-0.16-0.01-0.24-0.02c-3.53-0.6-7.25-1.08-11.07-1.4
				c-0.79-0.07-1.37-0.76-1.3-1.55c0.07-0.79,0.74-1.37,1.55-1.3c3.9,0.33,7.7,0.82,11.31,1.43c0.78,0.13,1.3,0.87,1.17,1.65
				C701.84,337.89,701.23,338.39,700.55,338.39z M625.5,336.93c-0.3,0-0.6-0.09-0.86-0.29c-2.83-2.12-5.93-4.27-9.23-6.39
				c-0.66-0.43-0.86-1.31-0.43-1.98c0.43-0.66,1.31-0.86,1.98-0.43c3.36,2.16,6.52,4.35,9.4,6.51c0.63,0.47,0.76,1.37,0.29,2
				C626.37,336.73,625.94,336.93,625.5,336.93z M666.76,336.53c-0.76,0-1.4-0.6-1.43-1.37c-0.03-0.79,0.58-1.45,1.37-1.48
				c1.01-0.04,2.03-0.07,3.07-0.1c2.85-0.07,5.63-0.08,8.32-0.03c0.79,0.01,1.42,0.67,1.4,1.45c-0.01,0.78-0.65,1.4-1.43,1.4
				c-0.01,0-0.02,0-0.03,0c-2.66-0.05-5.39-0.04-8.2,0.03c-1.03,0.02-2.04,0.06-3.03,0.1C666.8,336.53,666.78,336.53,666.76,336.53z
				 M606.49,324.61c-0.24,0-0.48-0.06-0.71-0.19c-3.12-1.78-6.46-3.59-9.91-5.38c-0.7-0.36-0.98-1.23-0.61-1.93
				c0.36-0.7,1.23-0.97,1.93-0.61c3.49,1.81,6.87,3.64,10.02,5.44c0.69,0.39,0.92,1.26,0.53,1.95
				C607.47,324.35,606.98,324.61,606.49,324.61z M586.35,314.17c-0.21,0-0.41-0.04-0.61-0.14c-3.28-1.56-6.74-3.14-10.28-4.7
				c-0.72-0.32-1.05-1.16-0.73-1.88c0.32-0.72,1.16-1.05,1.88-0.73c3.56,1.57,7.05,3.16,10.35,4.73c0.71,0.34,1.02,1.19,0.68,1.91
				C587.4,313.86,586.89,314.17,586.35,314.17z M565.61,305c-0.18,0-0.37-0.03-0.54-0.11c-3.39-1.4-6.93-2.81-10.5-4.2
				c-0.74-0.29-1.1-1.12-0.81-1.85c0.29-0.74,1.12-1.1,1.85-0.81c3.59,1.4,7.14,2.82,10.56,4.23c0.73,0.3,1.08,1.14,0.78,1.87
				C566.7,304.67,566.17,305,565.61,305z M544.47,296.77c-0.16,0-0.33-0.03-0.49-0.09c-3.45-1.27-7.04-2.56-10.66-3.83
				c-0.74-0.26-1.14-1.08-0.88-1.82c0.26-0.74,1.08-1.14,1.82-0.88c3.64,1.27,7.24,2.57,10.71,3.84c0.74,0.27,1.12,1.09,0.85,1.84
				C545.6,296.42,545.05,296.77,544.47,296.77z M523.06,289.27c-0.15,0-0.3-0.02-0.45-0.07c-3.54-1.18-7.16-2.36-10.76-3.52
				c-0.75-0.24-1.17-1.04-0.93-1.8c0.24-0.75,1.05-1.17,1.8-0.93c3.62,1.16,7.25,2.34,10.8,3.53c0.75,0.25,1.15,1.06,0.9,1.81
				C524.22,288.89,523.66,289.27,523.06,289.27z M501.45,282.36c-0.14,0-0.28-0.02-0.42-0.06c-3.66-1.12-7.28-2.21-10.85-3.26
				c-0.76-0.22-1.19-1.02-0.97-1.77c0.22-0.76,1.02-1.19,1.78-0.97c3.58,1.05,7.21,2.14,10.88,3.27c0.75,0.23,1.18,1.03,0.95,1.79
				C502.63,281.97,502.07,282.36,501.45,282.36z M479.69,275.96c-0.13,0-0.26-0.02-0.39-0.05c-3.72-1.05-7.37-2.06-10.92-3.03
				c-0.76-0.21-1.21-0.99-1-1.75c0.21-0.76,0.99-1.21,1.75-1c3.56,0.97,7.22,1.98,10.95,3.04c0.76,0.21,1.2,1.01,0.99,1.76
				C480.88,275.55,480.31,275.96,479.69,275.96z M457.79,269.99c-0.12,0-0.24-0.01-0.36-0.05c-3.82-1-7.49-1.94-10.98-2.82
				c-0.77-0.19-1.23-0.97-1.04-1.74c0.19-0.76,0.97-1.23,1.74-1.04c3.5,0.88,7.18,1.83,11.01,2.83c0.76,0.2,1.22,0.98,1.02,1.75
				C459,269.57,458.42,269.99,457.79,269.99z M435.77,264.44c-0.11,0-0.22-0.01-0.34-0.04c-4.06-0.98-7.76-1.86-11.04-2.62
				c-0.77-0.18-1.25-0.95-1.07-1.72c0.18-0.77,0.94-1.24,1.72-1.07c3.29,0.76,7,1.64,11.07,2.62c0.77,0.19,1.24,0.96,1.05,1.73
				C437,264,436.42,264.44,435.77,264.44z"/><path fill="#bac1dd" d="M1149.86,561.31c-0.3,0-0.6-0.09-0.85-0.28c-0.63-0.47-0.76-1.37-0.29-2c1.14-1.53,2.02-3.08,2.63-4.63
				c0.29-0.74,1.12-1.09,1.85-0.81c0.73,0.29,1.09,1.12,0.81,1.86c-0.7,1.78-1.71,3.56-3,5.29
				C1150.72,561.12,1150.29,561.31,1149.86,561.31z"/><rect width="221.72" height="346.03" x="851.4" y="481.22" fill="#59417f"/><rect width="193.34" height="46.78" x="865.58" y="564.28" fill="#715c9b"/><rect width="194.07" height="46.78" x="864.85" y="498.42" fill="#715c9b"/><rect width="87.38" height="178.73" x="865.58" y="628.16" fill="#fff"/><rect width="89.87" height="178.73" x="969.05" y="628.16" fill="#fff"/><rect width="17.53" height="27.21" x="851.4" y="827.25" fill="#4a4844"/><rect width="17.53" height="27.21" x="1055.59" y="827.25" fill="#4a4844"/><rect width="11.67" height="37.29" x="899.86" y="507.91" fill="#d55f64"/><rect width="5.48" height="18.42" x="902.68" y="510.71" fill="#fff"/><path fill="#fff" d="M902.39,536.64c0-1.65,1.35-2.99,3.02-2.99c1.67,0,3.02,1.34,3.02,2.99c0,1.65-1.35,2.99-3.02,2.99
							C903.75,539.63,902.39,538.29,902.39,536.64z"/><rect width="11.67" height="37.29" x="911.53" y="507.91" fill="#f4b644"/><rect width="5.48" height="18.42" x="914.35" y="510.71" fill="#fff"/><path fill="#fff" d="M914.06,536.64c0-1.65,1.35-2.99,3.02-2.99c1.67,0,3.02,1.34,3.02,2.99c0,1.65-1.35,2.99-3.02,2.99
							C915.42,539.63,914.06,538.29,914.06,536.64z"/><g><rect width="11.67" height="37.29" x="923.21" y="507.91" fill="#d55f64"/><rect width="5.48" height="18.42" x="926.02" y="510.71" fill="#fff"/><path fill="#fff" d="M925.74,536.64c0-1.65,1.35-2.99,3.02-2.99c1.67,0,3.02,1.34,3.02,2.99c0,1.65-1.35,2.99-3.02,2.99
							C927.09,539.63,925.74,538.29,925.74,536.64z"/></g><g><rect width="11.67" height="37.29" x="934.88" y="507.91" fill="#f4b644"/><rect width="5.48" height="18.42" x="937.69" y="510.71" fill="#fff"/><path fill="#fff" d="M937.41,536.64c0-1.65,1.35-2.99,3.02-2.99c1.67,0,3.02,1.34,3.02,2.99c0,1.65-1.35,2.99-3.02,2.99
							C938.76,539.63,937.41,538.29,937.41,536.64z"/><g><rect width="11.67" height="37.29" x="946.55" y="507.91" fill="#d55f64"/><rect width="5.48" height="18.42" x="949.36" y="510.71" fill="#fff"/><path fill="#fff" d="M949.08,536.64c0-1.65,1.35-2.99,3.02-2.99c1.67,0,3.02,1.34,3.02,2.99c0,1.65-1.35,2.99-3.02,2.99
							C950.43,539.63,949.08,538.29,949.08,536.64z"/></g><g><rect width="11.67" height="37.29" x="958.22" y="507.91" fill="#f4b644"/><rect width="5.49" height="18.42" x="961.03" y="510.71" fill="#fff"/><path fill="#fff" d="M960.75,536.64c0-1.65,1.35-2.99,3.02-2.99c1.67,0,3.02,1.34,3.02,2.99c0,1.65-1.35,2.99-3.02,2.99
							C962.1,539.63,960.75,538.29,960.75,536.64z"/></g></g><g><rect width="11.67" height="37.29" x="864.85" y="507.91" fill="#f4b644"/><rect width="5.48" height="18.42" x="867.66" y="510.71" fill="#fff"/><path fill="#fff" d="M867.38,536.64c0-1.65,1.35-2.99,3.02-2.99c1.67,0,3.02,1.34,3.02,2.99c0,1.65-1.35,2.99-3.02,2.99
							C868.73,539.63,867.38,538.29,867.38,536.64z"/><g><rect width="11.67" height="37.29" x="876.52" y="507.91" fill="#d55f64"/><rect width="5.48" height="18.42" x="879.33" y="510.71" fill="#fff"/><path fill="#fff" d="M879.05,536.64c0-1.65,1.35-2.99,3.02-2.99c1.67,0,3.02,1.34,3.02,2.99c0,1.65-1.35,2.99-3.02,2.99
							C880.41,539.63,879.05,538.29,879.05,536.64z"/></g><g><rect width="11.67" height="37.29" x="888.19" y="507.91" fill="#f4b644"/><rect width="5.48" height="18.42" x="891" y="510.71" fill="#fff"/><path fill="#fff" d="M890.72,536.64c0-1.65,1.35-2.99,3.02-2.99c1.67,0,3.02,1.34,3.02,2.99c0,1.65-1.35,2.99-3.02,2.99
							C892.08,539.63,890.72,538.29,890.72,536.64z"/></g></g><g><rect width="7.94" height="46.78" x="1050.98" y="564.28" fill="#f4b644" transform="rotate(-180 1054.948 587.672)"/><rect width="7.94" height="41.44" x="1043.04" y="569.63" fill="#d55f64" transform="rotate(-180 1047.008 590.345)"/><rect width="7.94" height="37.96" x="1035.1" y="573.1" fill="#048c8c" transform="rotate(-180 1039.067 592.082)"/><rect width="7.94" height="37.96" x="1019.27" y="573.1" fill="#f4b644" transform="rotate(-154.119 1023.256 592.069)"/></g><path fill="#4a4844" d="M927.37,723.07c0-4.88,3.96-8.84,8.84-8.84c4.88,0,8.84,3.96,8.84,8.84c0,4.88-3.96,8.84-8.84,8.84
				C931.33,731.9,927.37,727.95,927.37,723.07z"/><path fill="#4a4844" d="M979.07,723.07c0-4.88,3.96-8.84,8.84-8.84c4.88,0,8.84,3.96,8.84,8.84c0,4.88-3.96,8.84-8.84,8.84
				C983.03,731.9,979.07,727.95,979.07,723.07z"/><g><path fill="#879e2a" d="M1051.06,383.79c-0.96-2.35-3.89-3.54-6.34-2.9c-1.97,0.52-3.55,2.03-4.45,3.87
				c-2.14-1.35-4.66-2.01-7.15-1.53c-3.78,0.72-6.81,3.79-8.33,7.32c-1.52,3.53-1.74,7.49-1.57,11.34
				c0.17,3.84,0.71,7.68,0.62,11.52c0,0-2.17,0.62-4.46,1.24c-3.79,1.03-6.94,3.95-10.83,4.54c-2.35,0.35-5.09-1.21-5.09-1.21
				c2.68-3.71,2.68-9.14,0.01-12.86c-2.67-3.72-7.82-5.44-12.2-4.08c-2.35,0.73-5.6,3.43-5.6,3.43c-1.63-2.15-5.14-2.35-7.19-0.6
				c-2.05,1.75-2.47,5.01-1.19,7.38c1.28,2.37,4.03,3.78,6.72,3.74c0,0,3.61,5.77,6.83,6.92l0.23-0.07
				c-2.03,3.01-2.51,7.4-2.02,11.19c1.28,9.94,6.36,19.35,13.98,25.86h23.07c3.45-5.17,7.54-12.6,9.49-18.5
				c1.96-5.9,2.22-12.64-0.7-18.12c-0.75-1.41-1.74-2.69-2.89-3.81c4.03-3.52,8.09-7.14,10.9-11.69c2.69-4.37,4.09-9.77,2.75-14.69
				c1.55-0.43,3.01-1.19,4.11-2.35C1051.2,388.14,1051.87,385.76,1051.06,383.79z"/><path fill="#fff" d="M1031.06,456.5v20.94c0,2.08-1.7,3.78-3.78,3.78h-24.98c-2.09,0-3.79-1.7-3.79-3.78V456.5H1031.06z"/><path fill="#ccc" d="M1031.06,456.5v20.94c0,2.08-1.7,3.78-3.78,3.78c2-11.67-9.65-15.33-28.77-14.47v-5.72l17.95-4.53
					H1031.06z"/><rect width="36.59" height="6.05" x="995.98" y="454.98" fill="#fff"/></g><g><path fill="#b7befa" d="M442.84,267.07c-3.4-62.04-63.31-111.45-136.72-111.45S172.8,205.03,169.4,267.07h-0.16v208.98v121.9H443
			v-121.9V267.07H442.84z"/><path fill="#fff" d="M313.09,313.75h111.45v-43.59h-0.14c-2.84-51.7-51.02-93.25-111.32-96.24V313.75z"/><path fill="#fff" d="M299.15,313.75V173.91c-60.29,2.99-108.48,44.54-111.32,96.24h-0.14v43.59H299.15z"/><rect width="111.48" height="249.38" x="313.08" y="328.37" fill="#fff"/><rect width="111.45" height="249.33" x="187.7" y="328.37" fill="#fff"/><rect width="290.48" height="18.11" x="160.72" y="597.26" fill="#a1abe5"/></g><g><circle cx="768.16" cy="397.84" r="51.47" fill="#ffb924"/><rect width="25.23" height="2.73" x="775.85" y="379.52" fill="#522323" transform="rotate(-15.116 788.358 380.824)"/><rect width="2.73" height="25.23" x="746.48" y="368.27" fill="#522323" transform="rotate(-74.894 747.859 380.907)"/><rect width="45.09" height="2.73" x="745.61" y="420.23" fill="#522323"/><ellipse cx="752.74" cy="395.57" fill="#522323" rx="5.25" ry="7.99" transform="matrix(1 -.00674 .00674 1 -2.65 5.086)"/><ellipse cx="753.92" cy="391.8" fill="#fff" rx="1.57" ry="2.14" transform="rotate(-11.246 753.805 391.77)"/><g><ellipse cx="783.58" cy="395.36" fill="#522323" rx="5.25" ry="7.99" transform="matrix(1 -.00674 .00674 1 -2.649 5.294)"/><ellipse cx="782.35" cy="391.61" fill="#fff" rx="2.14" ry="1.57" transform="rotate(-79.531 782.383 391.632)"/></g></g><g><circle cx="364.77" cy="278.47" r="43.92" fill="#ffb924"/><rect width="21.53" height="2.33" x="371.33" y="262.84" fill="#522323" transform="rotate(-15.116 382.045 263.963)"/><rect width="2.33" height="21.53" x="346.27" y="253.24" fill="#522323" transform="rotate(-74.894 347.442 264.017)"/><ellipse cx="351.62" cy="276.53" fill="#522323" rx="4.48" ry="6.81" transform="matrix(1 -.00674 .00674 1 -1.857 2.378)"/><ellipse cx="352.62" cy="273.32" fill="#fff" rx="1.34" ry="1.82" transform="rotate(-11.246 352.562 273.291)"/><ellipse cx="377.92" cy="276.35" fill="#522323" rx="4.48" ry="6.81" transform="matrix(1 -.00674 .00674 1 -1.855 2.555)"/><ellipse cx="376.88" cy="273.15" fill="#fff" rx="1.82" ry="1.34" transform="rotate(-79.531 376.893 273.169)"/><rect width="70.93" height="26.68" x="332.15" y="289.35" fill="#522323"/><g><path fill="#fff" d="M374.41,306.22l-1.23-0.03l0.04-1.99l1.63,0.04l0.6-2.66l-2.17-0.05l0.04-2l2.58,0.06l0.79-3.52l2.03,0.04
						l-0.79,3.52l2,0.04l0.78-3.52l2.1,0.05l-0.8,3.52l1.25,0.03l-0.04,2l-1.66-0.04l-0.6,2.66l2.2,0.05l-0.04,1.99l-2.61-0.06
						l-0.79,3.52l-2.02-0.04l0.78-3.52l-2.01-0.04l-0.79,3.52l-2.05-0.05L374.41,306.22z M377.49,301.62l-0.59,2.66l2.01,0.04
						l0.58-2.66L377.49,301.62z"/><path fill="#fff" d="M354.59,298.38c0.02,0.31-1.66,8.19-1.34,8.27c1.1,0.4,2.17-0.94,2.71-1.93c1.74-3.64-0.24-8.44-4.7-8.31
						c-2.41-0.06-4.61,1.1-5.71,3.28c-3.55,7.45,3.56,13.82,10.35,8.88l1.99,0.04c-5.16,5.91-15.03,3.03-14.71-5.31
						c0.03-2.97,1.49-5.93,3.98-7.38c2.61-1.56,7.02-1.27,9.06,1.08c2.03,2,2.36,5.83,0.99,8.39c-0.78,1.84-4.81,4.64-5.84,1.81
						c-2.46,2.58-5.76,0.21-5.43-3.14c-0.19-3.5,3.63-8.85,6.55-4.64l0.2-1.09L354.59,298.38z M347.98,304.6
						c-0.19,1.63,1.19,3.12,2.53,1.8c0.94-1.18,1.93-4.98,1-6.37c-1.4-1.42-2.8,0.36-3.13,1.99
						C348.13,302.96,348,303.82,347.98,304.6z"/><path fill="#fff" d="M369.26,305.47c0.04-1.72-0.94-2.71-2.89-3.52l0.09-4.08c0.98,0.06,1.69,0.4,2.05,0.6l0.45-1.24
					c-0.5-0.3-1.33-0.59-2.48-0.63l0.04-1.66l-1.25-0.03l-0.04,1.77c-1.68,0.33-2.75,1.51-2.78,3.04c-0.03,1.55,0.97,2.55,2.65,3.26
					l-0.1,4.53c-0.99-0.06-1.92-0.41-2.56-0.83l-0.42,1.28c0.61,0.43,1.82,0.78,2.95,0.82l-0.04,1.65l1.25,0.03l0.04-1.76
					C368.23,308.37,369.23,307.02,369.26,305.47z M364,299.58c0.01-0.6,0.37-1.28,1.2-1.57l-0.07,3.34
					C364.34,300.88,363.99,300.37,364,299.58z M366.25,307.39l0.08-3.85c0.98,0.54,1.37,1.13,1.35,2.02
					C367.67,306.44,367.15,307.12,366.25,307.39z"/><path fill="#fff" d="M393.45,303.49c-0.57-0.01-1.02-0.32-1.35-0.92c-0.32-0.6-0.59-1.48-0.79-2.63l0.06,0.11
					c-0.38,1.04-0.77,1.85-1.15,2.44c-0.39,0.59-0.87,0.87-1.46,0.86c-0.32-0.01-0.55-0.11-0.7-0.32c-0.15-0.2-0.23-0.44-0.22-0.72
					c0.01-0.43,0.24-0.89,0.69-1.38c0.45-0.49,1.18-1.04,2.2-1.63l0.06,0.17c-1.49-0.06-2.52-0.22-3.09-0.49
					c-0.57-0.26-0.85-0.6-0.84-1c0.01-0.27,0.12-0.5,0.35-0.68c0.23-0.18,0.56-0.27,1.01-0.26c0.46,0.01,0.96,0.13,1.5,0.35
					c0.54,0.22,1.02,0.52,1.44,0.9l-0.17,0.06c-0.21-0.46-0.36-0.97-0.45-1.51c-0.1-0.54-0.14-1.01-0.13-1.41
					c0.01-0.49,0.1-0.9,0.25-1.22c0.16-0.33,0.43-0.49,0.82-0.48c0.29,0.01,0.5,0.1,0.65,0.28c0.15,0.18,0.25,0.42,0.3,0.71
					c0.05,0.29,0.07,0.59,0.07,0.91c-0.01,0.43-0.06,0.87-0.14,1.33c-0.08,0.46-0.19,0.91-0.33,1.37l-0.19-0.09
					c0.42-0.36,0.9-0.64,1.44-0.83c0.54-0.19,1.02-0.28,1.45-0.27c0.49,0.01,0.85,0.12,1.08,0.34c0.23,0.21,0.34,0.5,0.34,0.86
					c-0.01,0.26-0.11,0.48-0.33,0.66c-0.21,0.18-0.6,0.32-1.15,0.42c-0.56,0.1-1.36,0.13-2.43,0.11l0.18-0.21
					c0.71,0.55,1.23,1.07,1.58,1.57c0.35,0.5,0.52,1.01,0.51,1.51c-0.01,0.36-0.11,0.63-0.3,0.82
					C393.99,303.4,393.75,303.49,393.45,303.49z"/></g></g><g><circle cx="288.15" cy="452.03" r="50.5" fill="#ff4548"/><rect width="24.76" height="2.68" x="295.58" y="433.92" fill="#522323" transform="rotate(-15.507 307.892 435.222)"/><rect width="2.68" height="24.76" x="266.77" y="423.15" fill="#522323" transform="rotate(-75.28 268.098 435.515)"/><ellipse cx="273.01" cy="449.9" fill="#522323" rx="5.16" ry="7.84" transform="rotate(-.81 272.476 449.692)"/><ellipse cx="274.13" cy="446.2" fill="#fff" rx="1.54" ry="2.1" transform="rotate(-11.63 274.112 446.165)"/><g><ellipse cx="303.26" cy="449.49" fill="#522323" rx="5.16" ry="7.84" transform="rotate(-.81 302.694 449.309)"/><ellipse cx="302.03" cy="445.82" fill="#fff" rx="2.1" ry="1.54" transform="rotate(-79.916 302.017 445.799)"/></g><g><path fill="#522323" d="M274.08,474.24c0.69-1.32,1.6-2.53,2.68-3.59c2.85-2.83,6.92-4.61,11.46-4.65
				c4.87-0.04,9.23,1.93,12.15,5.07c1,1.07,1.84,2.27,2.48,3.58c0.85,1.75,1.33,3.68,1.31,5.7c-0.03,2.89-31.61,2.57-31.63,0.29
				C272.5,478.35,273.06,476.18,274.08,474.24z"/><path fill="#fff" d="M289.36,479.74c-6.63,0.04-11.73-0.36-14.05-0.78c0.17-1.2,0.55-2.37,1.13-3.47
				c0.56-1.07,1.29-2.05,2.18-2.93c2.46-2.44,5.96-3.85,9.6-3.89c3.96-0.03,7.65,1.51,10.16,4.21c0.84,0.9,1.53,1.88,2.03,2.92
				c0.49,0.99,0.8,2.02,0.95,3.07C299.59,479.27,295.63,479.7,289.36,479.74z"/></g></g><g><circle cx="517.3" cy="198.07" r="53.95" fill="#ff4548"/><rect width="26.45" height="2.87" x="525.37" y="178.87" fill="#522323" transform="rotate(-15.116 538.515 180.272)"/><rect width="2.87" height="26.45" x="494.58" y="167.08" fill="#522323" transform="rotate(-74.894 496.022 180.316)"/><ellipse cx="501.14" cy="195.69" fill="#522323" rx="5.51" ry="8.37" transform="matrix(1 -.00674 .00674 1 -1.308 3.384)"/><ellipse cx="502.37" cy="191.74" fill="#fff" rx="1.65" ry="2.24" transform="rotate(-11.246 502.302 191.732)"/><g><ellipse cx="533.46" cy="195.47" fill="#522323" rx="5.51" ry="8.37" transform="matrix(1 -.00674 .00674 1 -1.306 3.602)"/><ellipse cx="532.18" cy="191.54" fill="#fff" rx="2.24" ry="1.65" transform="rotate(-79.531 532.201 191.555)"/></g><g><path fill="#522323" d="M501.21,228.99l-2.35-1.64c0.37-0.54,9.31-13.11,20.41-12.63c6.23,0.27,11.77,4.56,16.48,12.74l-2.48,1.43
				c-4.18-7.27-8.93-11.08-14.11-11.31C509.57,217.12,501.29,228.87,501.21,228.99z"/></g></g><g><path fill="#873c29" d="M535.78,354.5c0,0-55.92-54.92-91.15-12.97s-13.92,77.56-43.75,99.81c-29.82,22.24-36.95,62.84-10.35,84.28
			c26.6,21.44,70.98,14.98,105.63-56.04S535.78,354.5,535.78,354.5z"/><path fill="#f2ba94" d="M608.42,441.81c0,0-8.88-15.8-14.58-27.02c-5.7-11.22-1.92-31.74-8.42-34.62
				c-6.5-2.88-22.78-1.51-17.37,26.66c5.41,28.17-6.82,6.22-11.44,2.14c-4.61-4.09-4.46,16.42,7,32.74
				c11.46,16.33,11.46,16.33,11.46,16.33L608.42,441.81z"/><path fill="#e6493e" d="M571.99,455.13c0,0,5.29,13.45,13.47,30.96c10.87,23.26,26.83,53.67,42.27,69.19
				c3.79,3.81,7.52,6.72,11.16,8.42c0,0,6.06,3.68,13.91,5.58c3.62,0.88,7.63,1.39,11.6,0.99h0.04
				c11.36-1.17,22.44-9.79,23.46-38.34c2.16-60.21-87.6-106.8-87.6-106.8l-16.91,17.92l-3.62,3.82c-0.02,0.02-0.02,0.02-0.02,0.02
				L571.99,455.13z"/><polygon fill="#e6493e" points="526.38 466.45 526.38 558.65 652.8 569.28 664.4 570.27 664.44 570.27 655.23 554.77 621.6 498.11 585.46 486.09"/><path fill="#e3d2c1" d="M526.38,506.59v52.06l126.42,10.63c3.62,0.88,7.63,1.39,11.6,0.99h0.04c11.36-1.17,22.44-9.79,23.46-38.34
				c2.16-60.21-87.6-106.8-87.6-106.8l-16.91,17.92c4.19-3.18,12.43-6.68,26.92-3.2c23.48,5.62,69.14,87.86,60.45,105.68
				c-2.47,5.07-8.36,7.85-15.52,9.24c-8.58,1.66-18.98,1.34-27.5,0.51c-9.41-0.9-16.56-2.36-16.56-2.36l-9.57-16.95l-16.52,9.55
				C529.42,539.45,526.38,506.59,526.38,506.59z"/><path fill="#f2ba94" d="M822.31,819.12c-6.46-14.32,6.05-23.33-1.47-49.8l38.66-18.55c19.41,42.42,115.42,47.56,102.72,70.49
			c-17.28,31.2-77.75,3.87-95.89,3.87C848.18,825.11,828.02,831.79,822.31,819.12z"/><path fill="#1d5556" d="M657.69,671.11l14.55,15.45l4.67,4.96l135.67,144.13l77.22-69.55c-16.93-18.4-105.07-114.24-152.03-161.23
			c-11.76-11.72-20.9-20.39-25.73-24.05l-32.15,53.39L657.69,671.11z"/><path fill="#1d5556" d="M614.77,595.1l42.6,91.91l14.87-0.39l6.08-0.17c0,0,1.74-0.89,6.26-1.2c7.35-0.5,22,0.53,48.25,9.48
			l4.94-89.81c-11.76-11.72-20.9-20.39-25.73-24.05c-0.44-0.33-0.83-0.61-1.19-0.87c-15.63-10.66-55.38,0.45-78.07,8.2
			C626.52,590.35,617.56,594.01,614.77,595.1z"/><path fill="#ffcca3" d="M797.8,844.37c-7.02-14.06,5.12-23.55-3.44-49.71l37.89-20.06c21.07,41.62,117.21,42.96,105.43,66.37
			c-16.04,31.86-77.54,6.94-95.67,7.66C823.88,849.34,804.01,856.81,797.8,844.37z"/><path fill="#2c7277" d="M630.4,679.63l13.98,15.98l4.43,5.05l0.05,0.07l12.74,14.57l117.63,134.38l11.16-9.35l68.52-57.35
			c-16.25-19.01-100.85-117.98-146.09-166.64c-11.31-12.13-20.13-21.12-24.83-24.96l-28.71,43.96l-5.36,8.24L630.4,679.63z"/><path fill="#2c7277" d="M573.92,616.03l55.59,79.42l14.88,0.15l6.08,0.05c0,0,1.77-0.82,6.3-0.98c7.37-0.24,21.97,1.32,47.87,11.23
			l8.2-89.57c-11.32-12.14-20.14-21.13-24.84-24.96c-0.43-0.35-0.81-0.64-1.15-0.91c-15.24-11.22-48.8,0.78-71.76,7.7
			C608.75,600.07,576.75,615.05,573.92,616.03z"/><path fill="#2c7277" d="M402.23,831.36c0,0,0,0,0.02,0c0,0,0.02,0,0.04,0.02c17.23,14.93,41.29,22.57,67.14,18.19
			c53.94-9.16,147.19-89.75,190.82-129.82c4.24-3.9,8-7.39,11.21-10.42c7.98-7.5,12.59-12.03,12.59-12.03l-28.47-57.42l-16.91-34.13
			c0,0-168.64,31.68-234.11,103.15C362.6,754.71,371.46,804.65,402.23,831.36z"/><path fill="#ffcca3" d="M531.56,474.17c0,0,72.05,54.57,50.25,85.11s-47.27,71.51-45.51,112.67l-135.85,9.68l85.03-207.45
			L531.56,474.17z"/><polygon fill="#ffcca3" points="497.9 440.31 489.31 484.85 535.2 487.96 536.26 462.81 537.91 447.54"/><path fill="#e3d2c1" d="M497.9,440.31l-1.08,5.98c2.69,6.67,7.24,13,14.89,15.34c12.64,3.86,20.7,2.48,24.56,1.18l1.64-15.27
			L497.9,440.31z"/><path fill="#ffcca3" d="M572.22,401.99c-0.41,1.19-0.7,1.85-0.7,1.85c0.03,0.16,0.05,0.32,0.08,0.49c0.01,0.08,0.03,0.17,0.04,0.25
			c-0.04-0.02-0.08-0.05-0.11-0.08c0,0-0.63,3.77-2.11,9.38c-0.14,0.54-0.29,1.1-0.45,1.67c-4.2,15.17-14.04,41.05-33.07,45.29
			c-26.74,5.96-49.01-28.12-49.78-29.31c-5.36-11.24-6.36-24.83-3.26-41.21c6.5-34.36,55.81-63.09,78.75-39.66
			C581.14,370.62,574.6,395.14,572.22,401.99z"/><path fill="#873c29" d="M574.14,391.38c0,0-33-4.62-56.83-21l-36.19,44.25c-6-1.16-19.84-57.36,24.82-74.09
			C545.29,325.78,579.77,350.96,574.14,391.38z"/><path fill="#ffcca3" d="M476.81,385.24c3.02-3.43,7.72-2.09,11.53-0.01c3.54,1.92,5.38,5.15,4.53,8.19
				c-2.06,7.32,2.89,15.59,3.81,23.42C469.69,413.86,471.01,391.83,476.81,385.24z"/><path fill="#edcdb9" d="M480.64,391.42c1.98-0.57,4.81-0.08,5.77,1.51c0.42,0.7-0.84,1.23-1.4,0.54c-0.43-0.53-1.25-0.82-2.05-0.69
				c-0.71,0.12-1.34,0.66-1.68,1.11c-1.04,1.36-0.16,3.16,0.55,4.57c0.7,1.4,1.66,2.76,2.79,4.01c1.2,1.33,2.9,2.38,4.1,3.69
				c1.15,1.25-1.12,2.79-2.77,1.91c-1.27-0.68-2.19-1.67-3.08-2.61c-0.82-0.86-1.56-1.77-2.22-2.7c-1.34-1.91-2.45-4.02-2.85-6.12
				C477.45,394.78,477.98,392.19,480.64,391.42z"/><path fill="#edd6c7" d="M551.52,421.43c-0.45-3.44-2.92-5.24-1.87-13.94c-2.32,4.85-1.06,11.9-0.64,14.84
				c0.86,5.96-8.67,3.05-5.92,4.24C546.41,428.01,552.4,428.26,551.52,421.43z"/><path fill="#804300" d="M571.52,403.84c0.03,0.16,0.05,0.32,0.08,0.49c-2.25-0.3-5.28-0.3-6.76,0.19c-2.9,0.95-6.64,0.13-3.05-2.09
				c1.99-1.12,4.1-1.49,6.14-1.36c1,0.06,3.17,0.59,4.29,0.92C571.81,403.18,571.52,403.84,571.52,403.84z"/><path fill="#804300" d="M540.85,398.33c-6.05-6.88-17.47-3.66-19.12-0.66c-0.44,0.79,0.59,0.24,4.79-0.81
				c3.08-0.71,8.02,0.64,10.52,2.5C539.65,401.29,543.66,401.85,540.85,398.33z"/><path fill="#804300" d="M569.42,413.88c-0.14,0.54-0.29,1.1-0.45,1.67c-0.4,0.04-0.81,0.04-1.25,0.01
			c-0.38-0.02-0.76-0.08-1.16-0.16c-1.57-0.35-3.15-1.13-4.45-2.2c-1.36-1.12-2.42-2.51-2.87-4c0.66,0.79,1.62,1.76,2.97,2.63
			c1.26,0.83,2.86,1.56,4.87,2c0.21,0.04,0.4,0.08,0.61,0.1C568.28,413.99,568.86,413.96,569.42,413.88z"/><path fill="#804300" d="M530.16,408.08c-3.23-0.74-4.78-3.96-7.12-4.46c-1.16-0.25-2.1,0.22-2.45,0.34
			c0.61-0.05,2.12,0.18,2.12,0.18c-1.12-0.11-2.53,1.16-2.53,1.16c0.24-0.19,1.23-0.54,2.75-0.29c0.24,0.04,0.48,0.17,0.72,0.35
			c-0.91,0.07-1.59,0.55-2.06,0.99c0.78-0.27,1.8-0.49,2.84-0.29c1.19,1.19,2.76,3.03,5.54,3.67c3.17,0.72,7.2-0.24,9.25-2.53
			C537.42,408.03,534.32,409.03,530.16,408.08z"/><path fill="#d9a793" d="M535.04,440.48c4.18-4.12,13.56-2.13,15.65,3.35c0.12,0.31-0.28,0.56-0.55,0.34
			c-3.98-3.24-9.78-4.47-14.74-3.16C535.07,441.1,534.8,440.71,535.04,440.48z"/><path fill="#e6493e" d="M558.47,690.67c-7.67,1.09-14.35,1.92-20.39,2.73c-0.06,0.02-0.08,0.03-0.08,0.03
			c-19.73,2.63-32.72,4.93-49.74,14.35c-9.34,5.16-30.08,11.96-50.45,16.27v0.02c-0.37,0.08-0.74,0.16-1.11,0.25
			c-28.07,6.42-62.73,32.02-57.89,17.63c0.59-1.77,2.45-27.6,3.05-29.46c1.68-30.76,14.38-131.53,22.7-183.85
			c0.07-0.41,0.13-0.82,0.2-1.22c0-0.05,0.02-0.13,0.02-0.19c2.39-14.95,4.99-25.82,7.72-29.77c14.02-20.24,47.14-26.12,47.14-26.12
			c16.07-4.81,34.05-7.74,34.05-7.74s-8.27,35.88,17.43,37.68c25.69,1.8,24.71-30.07,24.71-30.07s0,0,0.02,0.03
			c0.03,0,0.03,0,0.03,0c1.3,0.66,28.69,14.77,40.08,29.01c1.99,2.47,3.95,5.73,5.72,9.68c0,0,0,0,0,0.04
			c0.09,0.1,0.11,0.23,0.17,0.34c0.16,0.4,0.34,0.79,0.51,1.17c0.42,1.01,0.82,2.04,1.19,3.11c0.74,2.03,1.42,4.19,2.04,6.5
			c3.24,12.07,4.58,27.72,1.51,45.84c-1.52,9.04-4.11,18.65-8.09,28.75c-1.56,3.93-3.34,7.96-5.34,12.02
			c-1.39,4.46-2.27,9.13-2.28,14.09c-0.04,6.33,0.69,12.46,1.83,18.19c0.63,2.39,8.21,30.73,16.59,33.18
			C598.54,675.71,591.04,686,558.47,690.67z"/><path fill="#e3d2c1" d="M538.08,693.4c6.04-0.81,12.72-1.63,20.39-2.73c32.57-4.67,40.08-14.95,31.35-17.5
			c-8.38-2.45-15.96-30.78-16.6-33.18c-1.13-5.73-1.87-11.86-1.83-18.19c0.02-4.96,0.9-9.63,2.29-14.09
			c2.01-4.06,3.79-8.09,5.34-12.02c3.99-10.1,6.57-19.71,8.09-28.75c3.07-18.12,1.74-33.76-1.5-45.84c-0.62-2.31-1.3-4.47-2.05-6.5
			c3.57,40.52-18.65,80.19-18.65,80.19l-20.48,12.3l15.65,7.59c0,0-0.97,26.08,4.25,44.67C569.39,677.42,539.8,692.54,538.08,693.4z
			"/><path fill="#e3d2c1" d="M437.81,724.05v0.02c-0.37,0.08-0.74,0.16-1.11,0.25c-28.07,6.42-62.73,32.02-57.89,17.63
			c0.59-1.77,2.45-27.6,3.05-29.46c1.68-30.76,14.38-131.53,22.7-183.85c0.07-0.41,0.13-0.82,0.2-1.22
			c-3.68,26.66,3.33,105.89,3.33,105.89l12.1,9.65l-17.61,6.95c0,0-0.58,15.22,4.22,43.5C411.57,721.67,437.81,724.05,437.81,724.05
			z"/><path fill="#e3d2c1" d="M538.07,693.4c6.04-0.81,12.72-1.62,20.38-2.73c32.59-4.67,40.08-14.95,31.35-17.49
			c-8.37-2.45-15.95-30.78-16.59-33.17c-1.14-5.73-1.87-11.86-1.83-18.2c0.02-4.95,0.89-9.62,2.29-14.08
			c2.01-4.07,3.78-8.09,5.34-12.02c3.99-10.11,6.57-19.72,8.09-28.75c-6.53,20.37-16.95,44.54-28.6,57.38l-15.81,10.72l15.25,5.34
			c0,0,4.72,10.61,8.11,27.69C569.32,684.65,539.81,692.94,538.07,693.4z"/><g><path fill="#ffcca3" d="M658.33,469.96c0,0,4.49,2.25,7.98,8c2.68-0.06,4.35-2.67,6.22-9.18c2.39-8.3,4.91-44.44,8.46-43.72
				c12.66,2.56,18.68,45.08,15.48,57.31c-1.66,6.34-22.85,39.36-22.85,39.36l-29.05-5.88c-4.33-3.85-8.8-34.19-0.49-50.98
				c2.58-5.21,3.62-14.09,6.48-17.88C655,441.1,661.43,456.19,658.33,469.96z"/><path fill="#3e2069" d="M654.73,483.04l21.72-89.97c0.98-4.08,5.09-6.59,9.17-5.6c4.08,0.99,6.59,5.09,5.6,9.17l-21.72,89.98
				c-0.98,4.08-5.09,6.59-9.17,5.6l0,0C656.25,491.23,653.74,487.12,654.73,483.04z"/><path fill="#e6493e" d="M483.14,644.86c11.92,9.71,25.44,19.82,40.78,30.33l1.35-6.6l20.65-102.02l0.11-0.47
				c0,0-93.51-88.24-117.97-80.33C405.83,492.99,364.32,548.32,483.14,644.86z"/><path fill="#e6493e" d="M482.51,634.8c0,0,8.75,10.72,22.27,23.48c5.52,5.19,11.87,10.75,18.7,16.05c0.26,0.53,0.44,0.85,0.44,0.85
				l1.35,0.46c19.85,14.96,43.8,24.45,65.55,20.37l0.01-0.1l-0.12-14.05l-0.5-73.27c0,0-0.41-0.41-1.19-1.15
				c-4.6-4.53-22.22-21.71-43.1-40.87c-15.28-14.03-32.37-29.13-47.36-41.03C481.03,566.6,482.51,634.8,482.51,634.8z"/><path fill="#e6493e" d="M589.32,607.05l0.06,0.11l40.78,61.16l8.29,12.45c7.36-3.95,13.64-8.7,17.14-14.37
				c0.17-0.36,0.3-0.72,0.47-1.08c14.58-35.89,38.14-103.47,34.47-158.74l-31.01,1.28l-23.39,0.98L589.32,607.05z"/><path fill="#e6493e" d="M571.26,681.59c4.7,4.91,11.07,9.73,19.56,14.33c0.1,0.04,0.19,0.12,0.29,0.16c0,0,27.5-4.66,47.34-15.31
				c7.36-3.95,13.64-8.7,17.14-14.37c0.17-0.36,0.3-0.72,0.47-1.08l-11.64-10.19l-54.97-48.03c0,0-0.03,0-0.07,0.06
				c-0.07,0.06-0.18,0.15-0.36,0.27C584.14,611.36,539.79,648.67,571.26,681.59z"/><path fill="#e3d2c1" d="M454.91,619.89c11.92,9.71,53.66,44.79,69,55.3l1.35,0.46c19.85,14.96,43.8,24.45,65.55,20.37l0.01-0.1
				c0.1,0.04,0.19,0.12,0.29,0.16c0,0,27.5-4.66,47.34-15.31c7.36-3.95,13.64-8.7,17.14-14.37c0.17-0.36,0.3-0.72,0.47-1.08
				c14.58-35.89,38.14-103.47,34.47-158.74l-31.01,1.28c0,0,20.92,11.12,16.65,32.9c-4.31,21.78-16.32,77.6-16.32,77.6L640.8,628.6
				l3.63,26.53c0,0-4.53,6.53-14.26,13.19c-8.76,6-21.76,12.08-39.45,13.54c-5.94,0.47-12.42,0.46-19.45-0.28
				c-13.31-1.38-23.82-6.82-41.21-14.52c-6.54-2.87-19.16-9.76-26.28-13.79C496.85,649.39,462.42,624.97,454.91,619.89z"/></g><path fill="#e3d2c1" d="M402.28,831.37c17.23,14.93,41.29,22.57,67.14,18.19c53.94-9.16,147.19-89.75,190.82-129.82l-11.71-19.32
			c0,0-73.72,80.39-140.59,114.31C442.17,848.11,403.56,831.92,402.28,831.37z"/><path fill="#e6493e" d="M515.04,338.47c0,0,4.8-3.77-5.71-7.23c-10.51-3.46-32.22,21.47-27.42,28.52L515.04,338.47z"/></g><g><path fill="#3e6e04" d="M1165.24,763.39c-4.57,10.25-7.16,21.31-8.3,32.45c-0.99,9.68-0.81,19.41-0.78,29.12
						c0.02,5.57-0.08,11.14-0.32,16.7c-0.04,0.9,1.32,0.88,1.39,0c0.8-9.63,0.38-19.32,0.43-28.98c0.06-10.04,0.68-20.08,2.77-29.92
						c1.38-6.49,3.34-12.81,5.52-19.08C1166.09,763.28,1165.42,762.99,1165.24,763.39L1165.24,763.39z"/><path fill="#3e6e04" d="M1151.48,735.13c-0.51,14.2-0.84,28.41-1,42.62c-0.16,13.74-0.13,27.49,0.34,41.23
						c0.26,7.69,0.61,15.39,1.33,23.05c0.09,0.98,1.62,1.01,1.56,0c-0.77-13.64-1.44-27.27-1.62-40.93
						c-0.19-13.9-0.11-27.8,0.06-41.7c0.1-8.09,0.17-16.18,0.16-24.27C1152.3,734.61,1151.5,734.61,1151.48,735.13L1151.48,735.13z"/><path fill="#3e6e04" d="M1183.29,694.07c-6.37,6.95-11.34,15-15.13,23.61c-4.07,9.22-6.92,18.92-8.99,28.77
						c-2.17,10.3-3.5,20.77-4.31,31.26c-0.82,10.5-1.11,21.05-1.08,31.58c0.03,9.82,0.37,19.63,0.82,29.43
						c0.05,1.11,0.1,2.21,0.16,3.32c0.06,1.22,1.96,1.22,1.9,0c-0.46-9.55-0.78-19.1-0.88-28.66c-0.1-10.4,0.09-20.81,0.76-31.19
						c0.67-10.44,1.83-20.86,3.74-31.14c1.84-9.89,4.4-19.69,8.07-29.07c3.39-8.69,7.81-17.13,13.52-24.53
						c0.7-0.9,1.42-1.79,2.16-2.66C1184.42,694.29,1183.73,693.58,1183.29,694.07L1183.29,694.07z"/><path fill="#3e6e04" d="M1130.42,735.67c3,6.4,5.4,13.17,7.38,19.95c1.95,6.68,3.52,13.45,4.69,20.31
						c2.39,13.93,3.33,28.06,4.1,42.16c0.43,7.89,0.78,15.77,1.26,23.66c0.08,1.3,2.12,1.31,2.04,0
						c-0.84-14.22-1.25-28.46-2.5-42.66c-1.23-14.08-3.2-28.17-7.13-41.78c-2.22-7.7-5.29-15.03-9.04-22.1
						C1130.93,734.67,1130.17,735.14,1130.42,735.67L1130.42,735.67z"/><path fill="#3e6e04" d="M1131.19,694.6c2.81,19.53,6.75,38.87,10.06,58.32c3.21,18.87,6.05,37.81,7.79,56.87
						c0.49,5.3,0.89,10.6,1.19,15.91c0.31,5.44,0.32,10.91,0.7,16.34c0.08,1.16,1.78,1.18,1.82,0c0.16-4.8-0.19-9.66-0.44-14.46
						c-0.25-4.79-0.59-9.58-0.99-14.37c-0.81-9.53-1.89-19.04-3.17-28.53c-2.59-19.21-5.98-38.29-9.47-57.35
						c-2.02-11.04-4.11-22.05-6.45-33.03C1132.09,693.62,1131.1,693.93,1131.19,694.6L1131.19,694.6z"/><path fill="#3e6e04" d="M1139.88,654.6c0.38,5.46,0.65,10.93,1.02,16.39c0.4,5.87,0.86,11.74,1.3,17.6
						c0.95,12.54,1.87,25.08,2.77,37.62c0.92,12.93,1.79,25.85,2.57,38.79c0.76,12.5,1.46,25,2.03,37.51
						c0.51,11.25,0.92,22.51,1.11,33.78c0.02,1.29,0.05,2.58,0.09,3.87c0.03,1.22,1.89,1.23,1.9,0c0.06-11.04-0.45-22.1-0.91-33.13
						c-0.52-12.4-1.18-24.79-1.94-37.17c-0.8-12.93-1.68-25.85-2.62-38.76c-0.92-12.64-1.91-25.27-2.95-37.9
						c-0.95-11.54-1.96-23.07-3.17-34.58c-0.14-1.33-0.28-2.66-0.4-4C1140.63,654.09,1139.84,654.08,1139.88,654.6L1139.88,654.6z"/><path fill="#3e6e04" d="M1170.46,659.5c-3.72,11.54-6.46,23.45-8.76,35.35c-2.29,11.81-4.11,23.71-5.49,35.66
						c-1.39,12-2.36,24.04-2.98,36.1c-0.61,11.93-0.88,23.88-0.85,35.83c0.02,11.87,0.33,23.75,0.86,35.61
						c0.07,1.46,0.14,2.91,0.21,4.37c0.07,1.26,2.03,1.28,1.98,0c-0.53-11.79-0.95-23.57-1.04-35.37
						c-0.1-11.93,0.09-23.87,0.61-35.8c0.52-11.94,1.38-23.87,2.64-35.76c1.27-12.01,2.93-23.99,5.08-35.88
						c2.14-11.9,4.72-23.71,7.71-35.43c0.37-1.46,0.71-2.93,1.07-4.39C1171.65,659.12,1170.67,658.85,1170.46,659.5L1170.46,659.5z"/><path fill="#3e6e04" d="M1132.7,736.56c-23.47,3.41-19.29-28.98-48.93-27.6c-3.95,0.18-8.5,0.97-13.81,2.52
						c0.93-4.53,10.2-11.51,15.96-12.49c1.86,0.77,3.5,2.23,4.6,4.67c0.49-0.3,0.01-3.2-2.69-5.55c5.72-0.42,9.65-4.12,14.58-3.83
						h0.01c1.46,1.77,2.17,4.06,2.25,6.8c0.6,0.16,1.98-2.76,0.01-6.94c5.63,1.92,16.55,1.36,22.3,8.56
						c0.62,2.28-0.16,6.13-1.5,8.21c1.29,0.39,3.25-3.12,3.12-6.31C1141.18,720.3,1132.7,736.56,1132.7,736.56z"/><path fill="#255403" d="M1132.7,736.56c-23.47,3.41-19.29-28.98-48.93-27.6c6.81-1.7,19.5-3.44,25.58,1.44
						C1122.18,720.73,1121.01,733.81,1132.7,736.56z"/><path fill="#7b9e06" d="M1181.76,696.09c23.47,3.41,19.29-28.98,48.93-27.6c3.95,0.18,8.5,0.97,13.81,2.52
						c-2.93-6.26-10.2-11.51-15.96-12.49c-1.86,0.77-3.5,2.23-4.6,4.67c-0.49-0.3-0.01-3.2,2.69-5.55
						c-5.72-0.42-9.65-4.12-14.58-3.83h-0.01c-1.46,1.77-2.17,4.06-2.25,6.8c-0.6,0.16-1.98-2.76-0.01-6.94
						c-5.63,1.92-16.55,1.36-22.3,8.56c-0.62,2.28,0.16,6.13,1.5,8.21c-1.29,0.39-3.25-3.12-3.12-6.31
						C1173.28,679.84,1181.76,696.09,1181.76,696.09z"/><path fill="#668500" d="M1181.76,696.09c23.47,3.41,19.29-28.98,48.93-27.6c-6.81-1.7-19.5-3.44-25.58,1.44
						C1192.28,680.26,1193.45,693.34,1181.76,696.09z"/><path fill="#7b9e06" d="M1133.84,696.06c-0.69,0.54-16.29,1.4-23.92-8.93c-3.79-5.15-5.45-12.79-7.73-18.76
						c-0.49-1.26-2.26-4.64-2.87-5.82c2.83-0.13,5.86,0.98,6.41,1.39c-2.27-3.24-5.96-1.63-8.34-4.47
						c-2.71-3.23-8.93-11.9-15.1-12.42c5.43-3.24,11.88-4.74,17.13-4.38c0.88,0.05,1.7,0.45,2.25,1.13c1.01,1.28,1.25,3,1.67,5.22
						c0.49-0.16,1.01-3.1-0.8-6.05c3.65-0.76,8.79,0.74,11.59,3.09c1.21,1.96,0.24,3.73-0.15,6.66c0.65,0.05,2.1-2.46,1.36-5.78
						C1134.38,657.39,1143.1,684.92,1133.84,696.06z"/><path fill="#668500" d="M1133.84,696.06c-0.69,0.54-16.29,1.4-23.92-8.93c-3.79-5.15-5.45-12.79-7.73-18.76
						c-0.49-1.26-2.26-4.64-2.87-5.82c2.83-0.13,5.86,0.98,6.41,1.39c-2.27-3.24-5.96-1.63-8.34-4.47
						c-2.71-3.23-8.93-11.9-15.1-12.42c0,0,25.03,0.09,30.38,15.92C1118.02,678.8,1126.83,693.6,1133.84,696.06z"/><path fill="#3e6e04" d="M1164.95,764.67c0.69,0.54,16.29,1.4,23.92-8.93c3.79-5.15,5.45-12.79,7.73-18.76
						c0.49-1.26,2.26-4.64,2.87-5.82c-2.83-0.13-5.86,0.98-6.41,1.39c2.27-3.24,5.96-1.63,8.34-4.47c2.71-3.23,8.93-11.9,15.1-12.42
						c-5.43-3.24-11.88-4.74-17.13-4.38c-0.88,0.05-1.7,0.45-2.25,1.13c-1.01,1.28-1.25,3-1.67,5.22c-0.49-0.16-1.01-3.1,0.8-6.05
						c-3.65-0.76-8.79,0.74-11.59,3.09c-1.21,1.96-0.24,3.73,0.15,6.66c-0.65,0.05-2.1-2.46-1.36-5.78
						C1164.42,725.99,1155.7,753.53,1164.95,764.67z"/><path fill="#255403" d="M1164.95,764.67c0.69,0.54,16.29,1.4,23.92-8.93c3.79-5.15,5.45-12.79,7.73-18.76
						c0.49-1.26,2.26-4.64,2.87-5.82c-2.83-0.13-5.86,0.98-6.41,1.39c2.27-3.24,5.96-1.63,8.34-4.47c2.71-3.23,8.93-11.9,15.1-12.42
						c0,0-25.03,0.09-30.38,15.91C1180.78,747.4,1171.97,762.21,1164.95,764.67z"/><g><path fill="#a3bc3e" d="M1176.58,696.41c-0.86,21.22-12.07,35.95-24.24,39.46c-10.26-8.74-15.99-22.48-15.19-35.9
						c2.09,4.62,4.84,6.31,4.96,5.74c-2.57-3.06-4.08-6.27-4.56-9.56c0-0.01,0-0.01,0-0.01c-0.16-4.93,1.5-9.79,4.26-14.7
						c1.39,4.6,4.33,6.55,5.09,5.91c-2.43-2.44-3.6-5.53-4.1-8.4c0.97-2.42,1.98-4.82,2.92-7.23c0.19-0.49,0.38-0.97,0.57-1.47
						c1.24,3.87,3.08,4.85,3.24,4.33c-1.1-2.09-1.88-4.24-2.38-6.66c2.54-7.07,4.36-14.47,3.43-21.86
						c3.84,3.63,7.51,7.44,9.32,13.14c-0.07,1.62-0.51,3.26-1.79,4.75c0.34,0.23,1.98-0.86,2.67-3.45c2.41,2.33,5.07,5.22,5.45,8.52
						c0.02,2.67-1.23,4.58-2.91,7c0.47-0.07,3.1-2.17,3.91-5.4c0.14,0.24,0.32,0.46,0.43,0.72c1.62,3.79,5.26,6.48,5.4,9.81
						c0.18,2.81-2.07,5.52-4.84,8.1c0.77,0.22,4.7-1.69,5.58-5.49C1175.36,687.84,1176.88,693.19,1176.58,696.41z"/><path fill="#8aa329" d="M1156.84,685.68c-5.32,17.68-9.1,40.31-4.51,50.2c-10.26-8.74-15.99-22.48-15.19-35.9
						c2.09,4.62,4.84,6.31,4.96,5.74c-2.57-3.06-4.08-6.27-4.56-9.56c0-0.01,0-0.01,0-0.01c-0.16-4.93,1.5-9.79,4.26-14.7
						c1.39,4.6,4.33,6.55,5.09,5.91c-2.43-2.44-3.6-5.53-4.1-8.4c0.97-2.42,1.98-4.82,2.92-7.23c0.19-0.49,0.38-0.97,0.57-1.47
						c1.24,3.87,3.08,4.85,3.24,4.33c-1.1-2.09-1.88-4.24-2.38-6.66c2.54-7.07,4.36-14.47,3.43-21.86
						C1150.59,646.06,1162.16,668,1156.84,685.68z"/></g><g><path fill="#3e6e04" d="M1169.7,662.15c0.54,0.35,12.11-0.04,17.06-8.16c2.46-4.05,3.18-9.79,4.47-14.35
						c0.28-0.96,1.36-3.57,1.74-4.48c-2.1,0.09-4.26,1.11-4.64,1.45c1.46-2.54,4.29-1.6,5.86-3.84c1.79-2.56,5.8-9.37,10.32-10.15
						c-4.22-2.03-9.07-2.71-12.92-2.11c-0.64,0.1-1.22,0.44-1.58,0.98c-0.66,1.01-0.73,2.29-0.89,3.96
						c-0.38-0.09-0.95-2.22,0.2-4.52c-2.74-0.32-6.44,1.13-8.35,3.04c-0.76,1.53,0.07,2.77,0.55,4.9c-0.48,0.08-1.71-1.67-1.38-4.18
						C1166.77,633.65,1162.14,654.54,1169.7,662.15z"/><path fill="#255403" d="M1169.7,662.15c0.54,0.35,12.11-0.04,17.06-8.16c2.46-4.05,3.18-9.79,4.47-14.35
						c0.28-0.96,1.36-3.57,1.74-4.48c-2.1,0.09-4.26,1.11-4.64,1.45c1.46-2.54,4.29-1.6,5.86-3.84c1.79-2.56,5.8-9.37,10.32-10.15
						c0,0-18.46,1.71-21.37,13.74C1180.24,648.37,1174.72,659.87,1169.7,662.15z"/></g><g><path fill="#a3bc3e" d="M1145.21,633.15c4.35,11.8,1.56,22.4-4.29,27.08c-7.59-2.45-13.84-8.66-16.46-16.18
						c2.19,2.05,4.08,2.35,4.01,2.01c-2.1-1.09-3.65-2.5-4.66-4.19c0,0,0,0,0,0c-1.21-2.66-1.4-5.69-1.01-9
						c1.8,2.2,3.86,2.6,4.12,2.08c-1.88-0.78-3.22-2.2-4.15-3.66c-0.02-1.54-0.01-3.08-0.04-4.62c-0.01-0.31-0.01-0.62-0.02-0.93
						c1.56,1.83,2.78,1.96,2.76,1.63c-1.08-0.9-1.99-1.89-2.81-3.1c-0.21-4.44-0.9-8.9-3.09-12.73c2.92,1.11,5.8,2.36,8.08,5.06
						c0.33,0.9,0.46,1.9,0.1,3c0.24,0.05,0.89-0.92,0.67-2.49c1.85,0.72,3.96,1.7,4.92,3.42c0.62,1.45,0.37,2.78,0,4.49
						c0.24-0.15,1.2-1.89,0.91-3.84c0.13,0.1,0.28,0.18,0.4,0.3c1.75,1.7,4.34,2.35,5.18,4.14c0.74,1.5,0.12,3.49-0.8,5.53
						c0.47-0.05,2.19-1.99,1.8-4.27C1142.59,628.74,1144.64,631.32,1145.21,633.15z"/><path fill="#8aa329" d="M1131.98,631.76c1.11,10.87,4.18,24.1,8.93,28.46c-7.59-2.45-13.84-8.66-16.46-16.18
						c2.19,2.05,4.08,2.35,4.01,2.01c-2.1-1.09-3.65-2.5-4.66-4.19c0,0,0,0,0,0c-1.21-2.66-1.4-5.69-1.01-9
						c1.8,2.2,3.86,2.6,4.12,2.08c-1.88-0.78-3.22-2.2-4.15-3.66c-0.02-1.54-0.01-3.08-0.04-4.62c-0.01-0.31-0.01-0.62-0.02-0.93
						c1.56,1.83,2.78,1.96,2.76,1.63c-1.08-0.9-1.99-1.89-2.81-3.1c-0.21-4.44-0.9-8.9-3.09-12.73
						C1119.57,611.53,1130.88,620.89,1131.98,631.76z"/></g><g><polygon fill="#ffb300" points="1183.51 804.83 1182.69 811.29 1177.26 854.19 1129.44 854.19 1123.44 811.29 1122.54 804.83"/><path fill="#ffb300" d="M1182.31,804.84h-58.57c-3.93,0-7.12-2.6-7.12-5.8l0,0c0-3.21,3.19-5.8,7.12-5.8h58.57
					c3.93,0,7.12,2.6,7.12,5.8l0,0C1189.43,802.24,1186.24,804.84,1182.31,804.84z"/><path fill="#ebcf9d" d="M1122.54,804.83l1.22,8.77c27.88-2.24,50.9,15.91,53.5,40.59l6.25-49.35H1122.54z"/></g></g><g><path fill="#561d8a" d="M1250.3,855.84H113.7c-2.09,0-3.78-1.94-3.78-4.33c0-2.39,1.69-4.33,3.78-4.33h1136.6
				c2.09,0,3.78,1.94,3.78,4.33C1254.08,853.9,1252.39,855.84,1250.3,855.84z"/><path fill="#561d8a" d="M505.11,890.29H267.64c-2.09,0-3.78-1.94-3.78-4.33s1.69-4.33,3.78-4.33h237.47c2.09,0,3.78,1.94,3.78,4.33
				S507.2,890.29,505.11,890.29z"/><path fill="#561d8a" d="M983.48,890.29H829.27c-2.09,0-3.78-1.94-3.78-4.33s1.69-4.33,3.78-4.33h154.21c2.09,0,3.78,1.94,3.78,4.33
				S985.57,890.29,983.48,890.29z"/><path fill="#561d8a" d="M609.65,890.29h-49.27c-2.09,0-3.78-1.94-3.78-4.33s1.69-4.33,3.78-4.33h49.27c2.09,0,3.78,1.94,3.78,4.33
				S611.73,890.29,609.65,890.29z"/></g><g><path fill="#46b7f0" d="M748.98,200.32H645.64c-10.6,0-19.2,8.59-19.2,19.2v50.98c0,10.6,8.59,19.2,19.2,19.2v15.13l18.65-15.13
			h84.69c10.6,0,19.2-8.59,19.2-19.2v-50.98C768.18,208.91,759.58,200.32,748.98,200.32z"/><path fill="#fff" d="M707.67,250.94h-2.62v-4.24h3.47l1.16-5.68h-4.62v-4.26h5.49l1.52-7.51h4.31l-1.52,7.51h4.26l1.48-7.51
						h4.47l-1.54,7.51h2.66v4.26h-3.52l-1.16,5.68h4.68v4.24h-5.55l-1.52,7.51h-4.29l1.48-7.51h-4.28l-1.52,7.51h-4.35
						L707.67,250.94z M714.01,241.02l-1.14,5.68h4.28l1.12-5.68H714.01z"/><path fill="#fff" d="M665.2,235.21c0.05,0.66-3.15,17.47-2.46,17.62c2.35,0.8,4.57-2.09,5.67-4.22
						c3.53-7.81-0.91-17.93-10.38-17.43c-5.11-0.01-9.75,2.56-11.98,7.25c-7.2,16,8.21,29.2,22.41,18.37h4.24
						c-10.68,12.8-31.79,7.14-31.51-10.59c-0.07-6.31,2.89-12.66,8.12-15.86c5.47-3.44,14.86-3.03,19.31,1.88
						c4.4,4.16,5.28,12.28,2.49,17.78c-1.56,3.95-10,10.09-12.31,4.13c-5.1,5.6-12.22,0.71-11.69-6.42
						c-0.57-7.43,7.31-18.97,13.7-10.17l0.37-2.33H665.2z M651.44,248.73c-0.33,3.48,2.68,6.58,5.45,3.7
						c1.94-2.55,3.86-10.66,1.82-13.59c-3.04-2.95-5.94,0.89-6.56,4.38C651.68,245.23,651.44,247.07,651.44,248.73z"/><path fill="#fff" d="M696.69,249.59c0-3.66-2.12-5.71-6.3-7.35v-8.68c2.08,0.08,3.62,0.76,4.39,1.19l0.9-2.66
					c-1.08-0.61-2.86-1.19-5.29-1.23v-3.52h-2.66v3.77c-3.55,0.79-5.77,3.34-5.77,6.59c0,3.29,2.18,5.36,5.77,6.81v9.64
					c-2.11-0.07-4.1-0.79-5.48-1.64l-0.82,2.73c1.32,0.88,3.9,1.58,6.3,1.61v3.52h2.66v-3.74
					C694.63,255.8,696.69,252.88,696.69,249.59z M685.25,237.32c0-1.27,0.72-2.73,2.48-3.4v7.11
					C686.03,240.07,685.25,239,685.25,237.32z M690.39,253.81v-8.18c2.1,1.09,2.97,2.33,2.97,4.22
					C693.36,251.73,692.3,253.18,690.39,253.81z"/><path fill="#fff" d="M747.99,244.25c-1.22,0-2.19-0.63-2.91-1.9c-0.72-1.27-1.32-3.12-1.81-5.56l0.14,0.23
					c-0.76,2.23-1.54,3.97-2.33,5.24c-0.79,1.27-1.82,1.9-3.07,1.9c-0.67,0-1.17-0.21-1.51-0.64c-0.34-0.43-0.5-0.93-0.5-1.51
					c0-0.92,0.46-1.91,1.4-2.97c0.93-1.07,2.46-2.26,4.6-3.57l0.14,0.37c-3.17-0.06-5.37-0.36-6.59-0.89
					c-1.22-0.53-1.83-1.23-1.83-2.08c0-0.58,0.24-1.07,0.71-1.46c0.47-0.4,1.18-0.59,2.13-0.59c0.98,0,2.04,0.22,3.2,0.66
					c1.16,0.44,2.2,1.06,3.11,1.85l-0.37,0.14c-0.46-0.98-0.8-2.04-1.03-3.18c-0.23-1.14-0.34-2.14-0.34-3
					c0-1.04,0.16-1.91,0.48-2.61c0.32-0.7,0.89-1.05,1.72-1.05c0.61,0,1.08,0.19,1.4,0.57c0.32,0.38,0.54,0.88,0.66,1.49
					c0.12,0.61,0.18,1.25,0.18,1.92c0,0.92-0.08,1.86-0.23,2.84c-0.15,0.98-0.37,1.95-0.64,2.93l-0.41-0.18
					c0.88-0.79,1.89-1.4,3.02-1.83c1.13-0.43,2.15-0.64,3.07-0.64c1.04,0,1.81,0.22,2.31,0.66c0.5,0.44,0.76,1.05,0.76,1.81
					c0,0.55-0.22,1.02-0.66,1.42c-0.44,0.4-1.25,0.71-2.43,0.94c-1.17,0.23-2.89,0.34-5.15,0.34l0.37-0.46
					c1.53,1.13,2.67,2.22,3.43,3.27c0.76,1.05,1.14,2.11,1.14,3.18c0,0.76-0.2,1.35-0.6,1.76
					C749.15,244.04,748.63,244.25,747.99,244.25z"/></g><g><path fill="#ffb300" d="M310.29,109.23l-5.71-9.17c-1.3-2.08-0.66-4.82,1.42-6.11c2.08-1.3,4.82-0.66,6.11,1.42l5.71,9.17l9.17-5.71
			c2.08-1.3,4.82-0.66,6.11,1.42c1.3,2.08,0.66,4.82-1.42,6.11l-9.17,5.71l5.7,9.15c1.3,2.08,0.66,4.82-1.42,6.11
			c-1.04,0.65-2.25,0.81-3.35,0.56c-1.11-0.26-2.12-0.94-2.76-1.98l-5.7-9.15l-9.15,5.7c-1.04,0.65-2.25,0.81-3.35,0.56
			c-1.11-0.26-2.12-0.94-2.76-1.98c-1.3-2.08-0.66-4.82,1.42-6.11L310.29,109.23z"/></g><g><path fill="#ffb300" d="M882.07,421.44l-5.71-9.17c-1.3-2.08-0.66-4.82,1.42-6.11c2.08-1.3,4.82-0.66,6.11,1.42l5.71,9.17l9.17-5.71
			c2.08-1.3,4.82-0.66,6.11,1.42c1.3,2.08,0.66,4.82-1.42,6.11l-9.17,5.71l5.7,9.15c1.3,2.08,0.66,4.82-1.42,6.11
			c-1.04,0.65-2.25,0.81-3.35,0.56c-1.11-0.26-2.12-0.94-2.76-1.98l-5.7-9.15l-9.15,5.7c-1.04,0.65-2.25,0.81-3.35,0.56
			c-1.11-0.26-2.12-0.94-2.76-1.98c-1.3-2.08-0.66-4.82,1.42-6.11L882.07,421.44z"/></g><g><path fill="#e03131" d="M747.18,548.81c0.03-9.62,7.89-17.42,17.51-17.38c9.62,0.03,17.42,7.89,17.38,17.51
			c-0.03,9.62-7.89,17.42-17.51,17.38C754.94,566.28,747.15,558.42,747.18,548.81z M752.64,548.83c-0.02,6.61,5.33,12,11.94,12.03
			c6.61,0.02,12-5.33,12.03-11.94c0.02-6.61-5.33-12-11.94-12.03C758.06,536.86,752.66,542.22,752.64,548.83z"/></g><g><path fill="#e03131" d="M136.07,788.7c0.03-9.62,7.89-17.42,17.51-17.38c9.62,0.03,17.42,7.89,17.38,17.51
			c-0.03,9.62-7.89,17.42-17.51,17.38C143.83,806.17,136.03,798.32,136.07,788.7z M141.52,788.72c-0.02,6.61,5.33,12,11.94,12.03
			c6.61,0.02,12-5.33,12.03-11.94c0.02-6.61-5.33-12-11.94-12.03C146.94,776.76,141.55,782.11,141.52,788.72z"/></g><g><path fill="#7159c1" d="M1093.43,472.65l15.68-14.9c1.62-1.54,3.88-2.09,6.02-1.45c2.15,0.63,3.74,2.31,4.27,4.49l5.06,21.03
								c0.52,2.18-0.13,4.4-1.76,5.94c-1.62,1.54-3.88,2.09-6.03,1.45l-20.74-6.13c-2.15-0.64-3.74-2.32-4.27-4.49
								c-0.4-1.65-0.12-3.32,0.75-4.71C1092.7,473.44,1093.03,473.03,1093.43,472.65z M1119.71,482.97l-5.06-21.03
								c-0.16-0.66-0.69-0.89-0.9-0.95c-0.22-0.06-0.78-0.16-1.27,0.31l-15.68,14.9c-0.5,0.47-0.43,1.04-0.37,1.26
								c0.05,0.22,0.25,0.76,0.9,0.95l20.74,6.13c0.66,0.19,1.11-0.15,1.27-0.31c0.06-0.05,0.14-0.14,0.22-0.27
								C1119.7,483.73,1119.81,483.4,1119.71,482.97z"/></g><g><path fill="#7159c1" d="M600.13,811.97l15.68-14.9c1.62-1.54,3.88-2.09,6.02-1.45c2.15,0.63,3.74,2.31,4.27,4.49l5.06,21.03
								c0.52,2.18-0.13,4.4-1.76,5.94c-1.62,1.54-3.88,2.09-6.03,1.45l-20.74-6.13c-2.15-0.64-3.74-2.32-4.27-4.49
								c-0.4-1.65-0.12-3.32,0.75-4.71C599.4,812.76,599.74,812.35,600.13,811.97z M626.42,822.29l-5.06-21.03
								c-0.16-0.66-0.69-0.89-0.9-0.95c-0.22-0.06-0.78-0.16-1.27,0.31l-15.68,14.9c-0.5,0.47-0.43,1.04-0.37,1.26
								c0.05,0.22,0.25,0.76,0.9,0.95l20.74,6.13c0.66,0.19,1.11-0.15,1.27-0.31c0.06-0.05,0.14-0.14,0.22-0.27
								C626.4,823.05,626.52,822.72,626.42,822.29z"/></g><g><path fill="#214712" d="M211.09,667.65c4.29,4.27,7.23,9.52,9.35,15.15c2.26,6.02,3.97,12.27,5.44,18.53
				c3.15,13.37,4.79,27.09,4.92,40.83c0.07,7.74-0.44,15.42-1.22,23.12c-0.09,0.94,1.33,0.9,1.45,0c0.91-6.91,1.24-13.93,1.25-20.9
				c0.02-6.94-0.35-13.89-1.12-20.79c-0.76-6.88-1.9-13.72-3.41-20.48c-1.46-6.49-3.15-13.03-5.54-19.25
				c-2.36-6.16-5.5-12.39-10.64-16.7C211.25,666.87,210.77,667.33,211.09,667.65L211.09,667.65z"/><path fill="#214712" d="M237.9,660.75c-1.88,6.54-2.58,13.45-2.9,20.22c-0.32,6.92-0.08,13.85,0.52,20.75
				c0.59,6.72,1.69,13.38,2.11,20.12c0.43,6.73,0.39,13.47,0.02,20.2c-0.21,3.81-0.54,7.61-0.97,11.39
				c-0.44,3.8-1.08,7.58-1.55,11.37c-0.08,0.68,1.04,0.82,1.19,0.16c0.73-3.27,1.15-6.61,1.56-9.93c0.42-3.37,0.75-6.75,0.99-10.14
				c0.48-6.74,0.58-13.51,0.25-20.25c-0.16-3.31-0.43-6.62-0.82-9.91c-0.4-3.38-0.91-6.74-1.29-10.12
				c-0.75-6.85-1.17-13.73-1.08-20.62c0.05-3.85,0.26-7.69,0.67-11.52c0.41-3.89,1.06-7.74,1.7-11.6
				C238.36,660.59,237.98,660.48,237.9,660.75L237.9,660.75z"/><path fill="#214712" d="M214.14,644.81c0.93,8.02,4.04,15.68,7.01,23.13c3.06,7.7,6.06,15.38,8.11,23.42
				c1.97,7.71,3.25,15.57,3.95,23.49c0.7,7.87,0.85,15.78,0.75,23.68c-0.1,8.18-0.54,16.35-0.66,24.52
				c-0.02,1.07-0.01,2.14-0.01,3.2c0,0.64,0.94,0.63,0.99,0c0.62-8.25,0.93-16.55,1.09-24.82c0.15-7.92,0.09-15.85-0.48-23.76
				c-0.57-7.9-1.65-15.78-3.45-23.5c-1.87-8.03-4.61-15.78-7.75-23.39c-1.57-3.81-3.18-7.61-4.62-11.47
				c-1.42-3.81-2.59-7.67-3.59-11.62c-0.25-0.99-0.48-1.99-0.7-2.99C214.71,644.37,214.1,644.44,214.14,644.81L214.14,644.81z"/><path fill="#214712" d="M212.86,695.84c2.96,8.1,9.08,14.38,13,21.96c2.14,4.13,3.16,8.55,3.73,13.15
				c0.62,5.05,0.68,10.14,0.7,15.21c0.01,2.81,0.02,5.63,0.1,8.44c0.08,2.8,0.13,5.66,0.67,8.42c0.11,0.56,1,0.43,0.99-0.13
				c-0.05-2.52-0.28-5.04-0.34-7.56c-0.06-2.53-0.06-5.06-0.07-7.58c-0.03-5.09-0.05-10.19-0.58-15.25
				c-0.48-4.58-1.37-9.16-3.33-13.35c-1.82-3.89-4.34-7.4-6.81-10.9c-2.81-3.97-5.7-8-7.51-12.55
				C213.29,695.34,212.73,695.48,212.86,695.84L212.86,695.84z"/><path fill="#214712" d="M214.38,716.67c4.46,1.21,8.15,4.44,10.19,8.56c1.35,2.73,1.71,5.74,2.06,8.72
				c0.88,7.41,1.49,14.84,2.52,22.23c0.25,1.76,0.51,3.51,0.87,5.25c0.25,1.24,0.5,2.5,1.08,3.63c0.28,0.54,1.14,0.16,0.97-0.41
				c-0.77-2.58-1.22-5.23-1.61-7.88c-0.55-3.83-0.96-7.68-1.37-11.52c-0.39-3.69-0.74-7.38-1.2-11.05c-0.38-3-0.73-6.02-1.97-8.81
				c-2.11-4.74-6.32-8.21-11.36-9.39C214.13,715.91,213.95,716.55,214.38,716.67L214.38,716.67z"/><path fill="#214712" d="M258.56,670.29c-3.96,4.69-7.14,10.05-9.54,15.69c-2.43,5.72-3.98,11.65-4.34,17.86
				c-0.39,6.76,0.08,13.52,0.04,20.28c-0.02,3.32-0.16,6.64-0.56,9.94c-0.38,3.09-0.97,6.17-1.66,9.2
				c-0.8,3.53-1.76,7.03-2.81,10.49c-1,3.26-2.14,6.48-3.16,9.74c-0.17,0.54,0.7,0.93,0.93,0.39c1.18-2.73,2.13-5.59,3.02-8.43
				c0.96-3.06,1.85-6.14,2.62-9.24c1.54-6.16,2.58-12.37,2.77-18.73c0.21-6.69-0.32-13.38-0.19-20.08c0.06-3.26,0.22-6.52,0.83-9.73
				c0.57-3.01,1.42-5.97,2.49-8.85c2.39-6.49,5.79-12.71,10.01-18.19C259.21,670.38,258.77,670.04,258.56,670.29L258.56,670.29z"/><path fill="#214712" d="M255.81,629.65c-2.08,3.77-3.42,7.81-4.16,12.05c-0.75,4.26-1.03,8.59-1.31,12.9
				c-0.29,4.46-0.55,8.94-1.28,13.36c-0.76,4.56-2.17,8.92-3.84,13.22c-1.72,4.43-3.61,8.81-4.92,13.39
				c-1.31,4.61-1.54,9.32-1.16,14.09c0.39,4.89,1.29,9.72,1.82,14.6c0.5,4.49,0.44,8.95-0.09,13.43
				c-0.98,8.29-3.05,16.46-1.84,24.85c0.17,1.16,0.39,2.3,0.66,3.44c0.19,0.8,1.39,0.46,1.22-0.34c-0.9-4.25-1.08-8.6-0.73-12.93
				c0.33-4.08,1.09-8.11,1.66-12.16c0.6-4.26,0.99-8.54,0.75-12.84c-0.27-4.83-1.19-9.61-1.78-14.41
				c-0.58-4.72-0.93-9.57-0.04-14.28c0.86-4.59,2.67-8.99,4.35-13.32c1.67-4.33,3.35-8.68,4.33-13.23
				c0.92-4.26,1.29-8.62,1.54-12.96c0.51-8.62,0.6-17.51,3.7-25.68c0.4-1.04,0.85-2.05,1.36-3.04
				C256.12,629.63,255.9,629.5,255.81,629.65L255.81,629.65z"/><path fill="#214712" d="M272.92,692.58c-4.52,1.78-9,3.98-12.89,6.91c-4.02,3.02-7.01,6.87-8.86,11.55
				c-1.94,4.92-2.7,10.21-3.58,15.39c-1.02,6.07-2.03,12.14-3.04,18.21c-0.56,3.33-1.11,6.67-1.67,10
				c-0.56,3.38-1.25,6.76-1.65,10.17c-0.08,0.65,1,0.79,1.14,0.15c0.63-2.91,1.03-5.89,1.52-8.83c0.49-2.95,0.99-5.9,1.48-8.85
				c0.99-5.9,1.97-11.8,2.96-17.69c0.87-5.22,1.54-10.55,3.11-15.63c1.49-4.83,3.97-9.11,7.81-12.44c4.13-3.59,9.13-5.81,13.9-8.4
				C273.43,692.97,273.24,692.46,272.92,692.58L272.92,692.58z"/><path fill="#214712" d="M259.48,719.16c-5.16,4.11-8.85,9.69-11.47,15.69c-2.68,6.13-4.38,12.62-5.9,19.12
				c-0.42,1.79-0.82,3.59-1.23,5.38c-0.2,0.9-0.41,1.8-0.62,2.7c-0.21,0.9-0.48,1.82-0.46,2.75c0.01,0.47,0.67,0.69,0.91,0.25
				c0.74-1.35,0.93-3.1,1.27-4.59c0.36-1.57,0.71-3.14,1.07-4.71c0.74-3.24,1.51-6.48,2.41-9.68c1.76-6.24,4.02-12.4,7.52-17.89
				c1.98-3.11,4.36-5.95,7.1-8.41C260.51,719.39,259.9,718.83,259.48,719.16L259.48,719.16z"/><path fill="#497311" d="M215.31,716.27c0.03-0.12,0.06-0.25,0.09-0.38l-5.71-3.69c-11.36-13.46-23.23-6.51-38.56-9.91
					c-5.96-1.32-12.18-7.48-19.28-7.01c-14.84,0.99-26.78,12.08-28.31,13.72c-0.24,0.25-0.23,0.28,0.05,0.03c0,0,0,0,0.01,0
					c0.5-0.07,17.23-2.36,21.47,1.51c12.71,11.56,18.54,6.47,27.37,10.67c9.97,6.11,20.38,15.47,32.56,8.51
					C210.12,726.97,213.99,721.94,215.31,716.27z"/><path fill="#619122" d="M215.79,716.56c0.03-0.12,0.06-0.25,0.09-0.38c0,0-4.47-2.59-5.75-3.72
					c-13.31-11.69-23.37-6.6-38.79-10.05c-6-1.34-12.26-7.53-19.4-7.08c-14.91,0.95-26.88,12.03-28.41,13.66l0.05,0.03
					c0,0,0,0,0.01,0c0.39-0.25,17.17-10.05,25.67-4c5.39,3.83,10.64,9.85,19.79,6.36c9.16-3.49,10.36-1.41,20.46,4.89
					C199.34,722.41,205.05,727.01,215.79,716.56z"/><path fill="#2d6119" d="M213.83,697.14c-3.17,4.08-10.19,2.45-16.52-1.45c-3.46-2.39-6.13-5.77-9.52-8.26
					c-7-5.1-15.59-5.9-24.1-6.51c-3.44-0.25-6.87-0.46-10.18-0.93c9.12-7.56,21.92-3.73,32.73-4.85
					c11.66-2.95,27.13-1.24,29.17,13.11C215.87,692.5,215.22,695.36,213.83,697.14z"/><path fill="#214712" d="M213.83,697.14c-3.17,4.08-10.19,2.45-16.52-1.45c-3.46-2.39-6.13-5.77-9.52-8.26
					c-7-5.1-15.59-5.9-24.1-6.51c6.47-1.85,18.62-4.11,27.35,1.5C202.4,689.72,207.85,696.28,213.83,697.14z"/><path fill="#9cb33c" d="M213.22,667.98c-0.01,0.08-0.03,0.17-0.05,0.25c-7.47,2.65-19.58,1.78-25.46-3.86
					c-2.21-1.98-7.72-9.85-10.34-11.24c-3.66-1.94-12.86-1.75-16.93-2.53c-13.4-2.57-21.29-13.13-19.19-26.66
					c24.21,23.08,56.23,2.56,68.35,22.52C213.48,652.82,214.69,660.69,213.22,667.98z"/><path fill="#879e2a" d="M213.22,667.98c-0.01,0.08-0.03,0.17-0.05,0.25c-7.47,2.65-19.58,1.78-25.46-3.86
					c-2.21-1.98-7.72-9.85-10.34-11.24c-3.66-1.94-12.86-1.75-16.93-2.53c-13.4-2.57-21.29-13.13-19.19-26.66
					c0,0-0.34,18.01,13.87,18.6c14.21,0.6,30.55-2.78,35.87,9.49C195.81,663.09,209.53,667.83,213.22,667.98z"/><path fill="#619122" d="M215.56,645.75c-0.28,0.84-0.56,1.67-0.86,2.48c-3.43-24.28-57.11-16.23-49.28-54.09
					c0,0,13.38,18.73,28.73,16.68c5.7-0.76,13.32,0.46,17.7,4.2C220.98,623.11,219.01,635.29,215.56,645.75z"/><path fill="#497311" d="M215.56,645.75c-0.18,0.8-0.47,1.63-0.86,2.48c-3.43-24.28-57.11-16.23-49.28-54.09
					c0,0,0.45,9.32,4.13,15.06c9.92,15.46,21.47,2.35,29.88,14.59C202.88,628.79,218.07,634.91,215.56,645.75z"/><path fill="#2d6119" d="M237.67,665.77c-0.1,0.06-0.2,0.11-0.3,0.16c-10.49-0.06-14.91-13.27-12.27-22.06
					c3.5-8.64,2.57-9.34-1.92-16.71c-0.88-3.02,0.95-6.08,2.07-9.02c2.33-6.12,2.87-15.59-1.38-19.9c-0.82-0.83-1.81-1.47-3.01-1.86
					c15.67,5,12.25,15.39,18.84,24.55c6.1,4.38,9.73,10.17,9.62,17.98C250.05,648.95,247.22,660.84,237.67,665.77z"/><path fill="#214712" d="M238.43,651.75c-1.46,5.92-1.2,10.97-0.76,14.02c-0.1,0.06-0.2,0.11-0.3,0.16
					c-10.49-0.06-14.91-13.27-12.27-22.06c3.5-8.64,2.57-9.34-1.92-16.71c-0.88-3.02,0.95-6.08,2.07-9.02
					c2.33-6.12,2.87-15.59-1.38-19.9c3.61,2.81,8.98,9.16,7.64,21.57C229.53,638.13,240.83,641.98,238.43,651.75z"/><g><path fill="#2d6119" d="M301.42,621.99c-6.45,8.05-3.26,20.2-8.79,28.55c-1.92,2.88-10.32,7.14-10.97,10.55
					c-2.82,14.92-17.3,14.52-23.48,11.54c-0.02-0.01-0.03-0.02-0.05-0.02c-8.58-10.6-1.15-17.12,4.16-26.24
					c2.34-14.62,12.96-16.16,25.51-18.59c4.79-1.22,9.4-3.18,13.6-5.78C301.42,622,301.42,621.99,301.42,621.99z"/><path fill="#214712" d="M301.42,621.99c-6.45,8.05-3.26,20.2-8.79,28.55c-1.92,2.88-10.32,7.14-10.97,10.55
					c-2.82,14.92-17.3,14.52-23.48,11.54c1.07-2.26,3.04-6.05,6.16-10.53c5.09-7.33,13.49-3.76,15.36-19.03
					c0.89-7.28,21.14-20.64,21.71-21.07C301.42,622,301.42,621.99,301.42,621.99z"/></g><g><path fill="#9cb33c" d="M322.71,679.93c-4.06,0.78-13.27,0.6-16.93,2.54c-2.62,1.39-8.13,9.26-10.34,11.24
					c-5.88,5.64-17.99,6.51-25.46,3.86c-1.54-7.37-0.34-15.35,3.56-21.78c12.12-19.95,44.14,0.57,68.35-22.51
					C344,666.8,336.11,677.36,322.71,679.93z"/><path fill="#879e2a" d="M322.71,679.93c-4.06,0.78-13.27,0.6-16.93,2.54c-2.62,1.39-8.13,9.26-10.34,11.24
					c-5.88,5.64-17.99,6.51-25.46,3.86c9.63-1.7,13.98-8.34,20.27-18.7c6.3-10.37,24.59-7.93,37.58-11.36
					c12.98-3.44,14.06-14.23,14.06-14.23C344,666.8,336.11,677.36,322.71,679.93z"/></g><g><path fill="#2d6119" d="M329.83,703.75c-11.33-2.27-14.71,13.1-32.44,11.67c-13.14-1.06-7.88,11.22-26.88,13.45
					c-3.69,0.43-8.44-2.19-11.15-6.04c-3.58-5.07-3.62-12.27,6.94-17.43c7.91-3.86,19.6,0.07,26.97-4.74
					c8.97-5.86,17.09-7.06,25.44-4.68c5.06,1.44,10.23,4.93,11.72,6.72c0,0,0,0,0.01,0.01
					C331.11,703.52,331.02,703.99,329.83,703.75z"/><path fill="#214712" d="M329.83,703.75c-11.33-2.27-14.71,13.1-32.44,11.67c-13.14-1.06-7.88,11.22-26.88,13.45
					c-3.69,0.43-8.44-2.19-11.15-6.04c3.45-8.69,11.94-11.79,23.57-10.96c13.31,0.95,17.13-5.14,27.7-10.06
					c6.99-3.25,15.1-1.01,19.79,0.89c0,0,0,0,0.01,0.01C331.11,703.52,331.02,703.99,329.83,703.75z"/></g><g><path fill="#ffa200" d="M249.63,852.14h-25.1c-1.73,0-3.23-1.5-3.62-3.61c-5.12-28.02-8.1-62.18-5.73-104.37h43.8
					c2.09,41.71-0.47,75.95-5.73,104.38C252.86,850.65,251.36,852.14,249.63,852.14z"/><path fill="#e6d5cc" d="M258.99,744.16h-43.8c-0.33,5.86-0.55,11.55-0.68,17.11h9.24c15.55,0,28.15,15.91,27.89,35.36
					c-0.28,20.51-1.78,38.92-4.19,55.51h2.2c1.73,0,3.23-1.49,3.62-3.6C258.52,820.11,261.08,785.87,258.99,744.16z"/><path fill="#ffa200" d="M258.77,740.29h-42.91c-2.29,0-4.15,1.81-4.15,4.04c0,2.23,1.86,4.04,4.15,4.04h42.91
					c2.29,0,4.15-1.81,4.15-4.04C262.92,742.1,261.06,740.29,258.77,740.29z"/></g><g><path fill="#9cb33c" d="M262.09,627.94c-3.01,0.86-5.65,2.34-7.34,4.89c-0.01,0.01-0.01,0.01-0.01,0.01
				c-2.11-2.57-2.49-6.58-3.31-9.81c-3.51-19.79,19.8-22.2,18.24-50.26c4.41,4.8,3.78,12.3,6.41,18.26
				c1.32,2.98,3.45,5.56,4.63,8.59C285.45,612.49,273.68,624.24,262.09,627.94z"/><path fill="#879e2a" d="M262.09,627.94c-3.01,0.86-5.65,2.34-7.34,4.89c0.14-0.26,2.43-4.46,3.94-14.28
				c1.56-10.14,4.99-7.95,10.99-17.77c6-9.81,0-28.01,0-28.01c4.41,4.8,3.78,12.3,6.41,18.26c1.32,2.98,3.45,5.56,4.63,8.59
				C285.45,612.49,273.68,624.24,262.09,627.94z"/></g></g></svg>